<svg width="2083" height="1979" viewBox="0 0 2083 1979" fill="none" xmlns="http://www.w3.org/2000/svg">
<path d="M1757.3 1332.28C1746.2 1332.28 1735.38 1330.96 1724.86 1328.32C1714.63 1325.43 1707.47 1320.51 1703.38 1313.54C1700.46 1308.5 1699 1301.41 1699 1292.28C1699 1283.87 1700.02 1274.87 1702.07 1265.26C1704.11 1255.65 1706.6 1246.28 1709.52 1237.15C1712.74 1228.02 1715.66 1220.45 1718.29 1214.45C1722.09 1206.04 1728.08 1198.11 1736.26 1190.66C1744.44 1183.22 1755.26 1177.33 1768.7 1173.01C1773.67 1171.32 1780.1 1169.88 1787.99 1168.68C1796.17 1167.48 1804.5 1166.88 1812.97 1166.88C1824.37 1166.88 1835.18 1168.32 1845.41 1171.2C1855.64 1173.85 1862.95 1178.77 1867.33 1185.98C1870.25 1190.78 1871.71 1197.63 1871.71 1206.52C1871.71 1214.69 1870.54 1223.7 1868.21 1233.55C1866.16 1243.4 1863.68 1252.88 1860.75 1262.01C1857.83 1270.9 1854.91 1278.47 1851.99 1284.72C1848.19 1292.88 1842.2 1300.81 1834.01 1308.5C1825.83 1315.95 1815.02 1321.83 1801.58 1326.16C1796.61 1327.84 1790.03 1329.28 1781.85 1330.48C1773.96 1331.68 1765.78 1332.28 1757.3 1332.28ZM1763.88 1323.99C1770.6 1323.99 1778.78 1322.19 1788.42 1318.59C1796.9 1315.22 1803.62 1309.82 1808.59 1302.37C1813.85 1294.93 1817.94 1286.76 1820.86 1277.87C1823.79 1268.98 1826.12 1260.93 1827.88 1253.73C1829.34 1247.72 1830.65 1241.11 1831.82 1233.91C1832.99 1226.7 1833.58 1219.61 1833.58 1212.65C1833.58 1202.56 1831.68 1193.91 1827.88 1186.7C1824.08 1179.25 1816.92 1175.53 1806.4 1175.53C1799.97 1175.53 1791.93 1177.33 1782.29 1180.93C1774.1 1184.06 1767.38 1189.46 1762.12 1197.15C1756.86 1204.6 1752.77 1212.77 1749.85 1221.65C1746.93 1230.3 1744.59 1238.23 1742.84 1245.44C1741.37 1251.44 1739.91 1258.17 1738.45 1265.62C1737.28 1272.82 1736.7 1279.91 1736.7 1286.88C1736.7 1296.97 1738.6 1305.74 1742.4 1313.18C1746.2 1320.39 1753.36 1323.99 1763.88 1323.99Z" fill="#E3E3E3"/>
<path d="M1820.5 1405.43C1820.5 1404.71 1820.5 1403.99 1820.5 1403.27C1820.5 1402.55 1820.65 1401.83 1820.94 1401.11L1841.54 1399.31C1849.73 1398.59 1857.47 1393.42 1864.78 1383.81C1872.08 1374.44 1878.95 1362.07 1885.38 1346.7C1891.81 1331.56 1897.8 1314.98 1903.35 1296.97C1908.9 1278.71 1914.02 1260.57 1918.69 1242.55C1923.37 1224.3 1927.46 1207.72 1930.97 1192.83C1924.54 1192.59 1917.96 1192.47 1911.24 1192.47C1904.52 1192.47 1899.7 1192.35 1896.78 1192.11C1887.72 1191.62 1880.12 1192.11 1873.98 1193.55L1872.23 1189.58L1902.91 1180.57C1905.25 1180.09 1909.49 1179.73 1915.63 1179.49C1922.06 1179.01 1928.34 1178.65 1934.48 1178.41C1935.94 1172.89 1937.11 1167.84 1937.98 1163.28C1939.15 1158.47 1940.32 1154.39 1941.49 1151.03C1945.87 1140.45 1949.53 1131.69 1952.45 1124.72C1955.37 1117.51 1959.61 1111.63 1965.16 1107.06C1970.71 1102.26 1979.48 1098.17 1991.46 1094.81C1992.92 1094.33 1995.55 1093.61 1999.35 1092.65C2003.15 1091.45 2007.24 1090.25 2011.63 1089.04C2016.01 1087.6 2019.81 1086.4 2023.02 1085.44C2026.24 1084.48 2027.85 1084 2027.85 1084L2029.6 1088.68L2017.76 1091.57C2009.58 1093.49 2002.86 1097.45 1997.6 1103.46C1992.34 1109.22 1987.96 1115.95 1984.45 1123.64C1981.23 1131.33 1978.17 1139.25 1975.24 1147.42C1973.49 1152.71 1971.74 1157.99 1969.98 1163.28C1968.23 1168.32 1966.62 1173.49 1965.16 1178.77C1968.67 1179.01 1972.32 1179.13 1976.12 1179.13C1979.92 1179.13 1983.72 1179.13 1987.52 1179.13C1996.87 1179.13 2006.22 1178.77 2015.57 1178.05C2024.92 1177.33 2033.4 1175.89 2041 1173.73L2043.63 1176.25L2002.86 1190.66C1997.31 1191.62 1990.59 1192.35 1982.69 1192.83C1975.1 1193.07 1967.79 1193.31 1960.78 1193.55C1955.52 1211.32 1950.55 1229.1 1945.87 1246.88C1941.2 1264.66 1936.23 1282.79 1930.97 1301.29C1923.66 1327.72 1914.17 1349.82 1902.48 1367.6C1891.08 1385.61 1874.27 1397.75 1852.06 1403.99C1848.56 1404.47 1843.74 1404.83 1837.6 1405.07C1831.17 1405.55 1825.47 1405.67 1820.5 1405.43ZM2058.97 1141.3L2054.15 1137.33C2055.9 1131.57 2056.78 1126.52 2056.78 1122.2C2056.78 1114.51 2054.44 1108.62 2049.76 1104.54C2045.38 1100.46 2039.24 1098.41 2031.35 1098.41C2024.34 1098.41 2016.16 1100.22 2006.8 1103.82L2004.61 1100.94C2014.26 1096.37 2022.59 1093.01 2029.6 1090.85C2036.9 1088.68 2043.92 1087.24 2050.64 1086.52C2057.36 1085.56 2064.81 1084.96 2073 1084.72L2074.75 1085.8C2075.33 1088.68 2074.9 1092.65 2073.43 1097.69C2071.97 1102.74 2070.07 1107.9 2067.74 1113.19C2066.57 1115.83 2065.4 1118.47 2064.23 1121.12C2063.35 1123.52 2062.48 1125.92 2061.6 1128.32C2059.85 1132.89 2058.97 1137.21 2058.97 1141.3ZM1810.42 1413C1799.32 1413 1789.67 1412.16 1781.49 1410.48C1773.31 1408.8 1764.39 1406.39 1754.75 1403.27L1753.87 1401.47C1755.04 1398.35 1757.96 1394.62 1762.64 1390.3C1767.32 1385.97 1772.28 1381.65 1777.54 1377.33C1780.47 1375.16 1783.24 1373 1785.87 1370.84C1788.5 1368.68 1790.99 1366.63 1793.33 1364.71C1795.66 1362.79 1797.71 1360.87 1799.46 1358.95C1800.92 1357.27 1802.24 1355.34 1803.41 1353.18L1805.6 1358.59C1794.2 1368.92 1788.5 1378.41 1788.5 1387.05C1788.5 1393.54 1792.16 1398.71 1799.46 1402.55C1806.48 1406.63 1816.85 1408.56 1830.59 1408.32V1412.28C1826.79 1412.52 1823.28 1412.64 1820.06 1412.64C1816.85 1412.88 1813.64 1413 1810.42 1413Z" fill="#E3E3E3"/>
<path d="M412.586 949.014C402.762 917.819 391.153 883.698 377.757 846.654C364.361 808.959 350.296 770.614 335.561 731.619C321.272 691.975 306.983 653.63 292.695 616.585C278.853 579.54 266.127 545.745 254.517 515.199C243.354 484.654 234.647 459.632 228.396 440.135C227.056 448.583 224.823 463.531 221.698 484.978C218.572 505.776 214.777 530.472 210.312 559.068C206.293 587.664 202.051 617.885 197.586 649.731C193.567 680.926 189.548 711.472 185.53 741.368C181.511 771.264 177.939 798.235 174.813 822.282C172.134 845.679 170.348 863.551 169.455 875.9C169.008 884.348 170.794 891.497 174.813 897.347C178.832 903.196 183.297 907.745 188.209 910.995C193.567 913.594 197.586 915.219 200.265 915.869C207.856 916.519 217.456 917.169 229.065 917.819C240.675 918.469 253.401 918.794 267.243 918.794C269.476 918.794 270.592 919.768 270.592 921.718C270.592 924.318 269.476 927.242 267.243 930.492C265.01 933.092 262.778 934.391 260.545 934.391C256.526 934.391 248.043 934.067 235.093 933.417C222.144 932.117 207.409 931.142 190.888 930.492C174.813 929.192 159.408 928.542 144.673 928.542C140.654 928.542 136.636 928.867 132.617 929.517C129.045 929.517 125.472 929.517 121.9 929.517C114.309 930.167 102.923 931.142 87.7414 932.442C73.0062 933.092 57.1547 933.417 40.1869 933.417C34.8287 933.417 29.2471 933.417 23.4424 933.417C18.0841 932.767 12.5026 932.442 6.69782 932.442H6.02804C4.24195 932.442 2.67913 931.467 1.33956 929.517C0.446521 926.917 0 924.643 0 922.693C0 918.794 1.56282 917.169 4.68847 917.819C12.2793 917.819 19.2004 918.144 25.4517 918.794C31.703 918.794 37.731 918.794 43.5358 918.794C60.9502 918.794 74.7923 916.519 85.0623 911.97C95.7788 907.42 104.486 897.347 111.184 881.749C118.328 866.151 125.249 841.779 131.947 808.634C146.236 737.794 157.845 669.878 166.776 604.887C175.706 539.246 184.19 471.005 192.227 400.165C193.567 387.167 192.004 376.118 187.539 367.02C183.52 357.271 178.385 351.747 172.134 350.447C167.669 349.147 160.078 348.172 149.361 347.522C138.645 346.872 128.152 346.548 117.882 346.548C108.058 345.898 101.36 345.898 97.7882 346.548C95.5556 346.548 94.4393 345.573 94.4393 343.623C94.4393 341.023 95.5556 338.099 97.7882 334.849C100.467 331.6 102.7 329.975 104.486 329.975C120.114 329.975 137.975 330.625 158.069 331.925C178.609 333.224 198.479 333.874 217.679 333.874C226.61 333.874 233.754 333.224 239.112 331.925C244.917 330.625 251.391 329.975 258.536 329.975C262.555 329.975 265.457 331.6 267.243 334.849C269.476 337.449 272.155 344.923 275.28 357.271C278.406 368.969 283.764 386.192 291.355 408.939C299.393 431.686 308.546 457.357 318.816 485.953C329.086 513.899 339.803 543.145 350.966 573.691C362.129 603.587 373.069 632.508 383.785 660.454C394.502 687.751 403.879 711.797 411.916 732.594C420.4 752.742 426.651 767.365 430.67 776.463C433.349 761.515 436.475 741.043 440.047 715.047C443.619 689.05 447.414 660.454 451.433 629.259C455.452 598.063 459.247 567.192 462.819 536.646C466.392 505.451 469.517 477.18 472.196 451.833C475.322 426.487 477.331 406.989 478.224 393.341C479.117 382.293 476.885 373.519 471.526 367.02C466.168 360.521 459.247 355.646 450.763 352.397C442.726 349.147 434.465 347.197 425.981 346.548C417.944 345.248 411.469 344.598 406.558 344.598H405.888C404.102 344.598 403.209 343.623 403.209 341.673C403.209 339.074 404.325 336.474 406.558 333.874C408.79 330.625 411.023 329 413.255 329C418.614 329 429.33 329.65 445.405 330.95C461.926 332.25 479.341 332.899 497.648 332.899C502.56 332.899 507.248 332.899 511.713 332.899C516.179 332.899 520.644 332.574 525.109 331.925C531.807 331.275 541.63 330.95 554.579 330.95C567.529 330.95 581.594 330.95 596.776 330.95C612.404 330.3 627.586 329.975 642.321 329.975C644.107 329.975 645 330.95 645 332.899C645 335.499 643.884 338.749 641.651 342.648C639.419 346.548 637.186 348.172 634.953 347.522C609.948 346.872 590.301 347.847 576.013 350.447C561.724 352.397 550.784 357.271 543.193 365.07C536.049 372.219 530.467 383.267 526.449 398.215C522.876 412.513 518.858 432.011 514.393 456.707C511.267 472.955 507.695 494.077 503.676 520.074C500.104 546.07 496.085 574.341 491.62 604.887C487.601 635.433 483.583 665.329 479.564 694.575C475.545 723.821 471.973 750.142 468.847 773.539C466.168 796.935 464.159 814.808 462.819 827.156C465.945 835.605 467.508 845.029 467.508 855.427C467.508 874.275 462.596 889.873 452.773 902.221C448.754 906.77 443.842 913.919 438.037 923.668C432.233 932.767 426.874 940.566 421.963 947.065C417.051 952.914 413.925 953.564 412.586 949.014Z" fill="#E3E3E3"/>
<path d="M587.648 1028L465.425 1022.86C460.368 1022.86 455.029 1022.86 449.41 1022.86C444.352 1022.29 439.014 1022 433.395 1022C410.917 1022 388.158 1022.57 365.119 1023.71C342.079 1024.86 319.04 1025.43 296 1025.43L305.272 1010.86C314.825 1011.43 323.816 1012 332.245 1012.57C340.674 1012.57 348.542 1012.57 355.847 1012.57C376.639 1012.57 395.183 1009.14 411.479 1002.29C428.337 994.857 445.476 978.571 462.897 953.429C472.45 940.286 484.25 922.286 498.299 899.429C512.347 876 527.239 851.143 542.973 824.857C534.544 824.286 526.677 824 519.372 824C512.066 824 505.042 824 498.299 824C488.746 824 478.631 824.286 467.954 824.857C457.277 824.857 445.195 825.429 431.709 826.571H422.437C415.693 826.571 412.322 825.714 412.322 824C412.322 821.143 416.255 818 424.123 814.571C431.99 810.571 438.171 808 442.667 806.857C457.839 804 474.978 802 494.084 800.857C513.752 799.714 535.668 798.571 559.831 797.429C577.252 767.714 594.11 738.571 610.406 710C627.264 680.857 641.875 655.143 654.238 632.857C667.162 610 676.153 593.143 681.211 582.286C684.582 574.857 687.392 567.714 689.64 560.857C691.888 553.429 693.011 546.286 693.011 539.429C693.011 529.714 689.921 522 683.739 516.286C678.12 510 667.162 506.571 650.866 506C640.751 506 629.512 506.286 617.149 506.857C604.787 507.429 593.548 508 583.433 508.571L588.49 494C609.844 495.143 628.95 496 645.808 496.571C662.667 497.143 677.277 497.429 689.64 497.429C698.069 497.429 705.655 497.429 712.398 497.429C719.142 496.857 724.761 496.571 729.257 496.571C741.619 496 753.42 495.714 764.659 495.714C775.898 495.714 787.98 495.429 800.904 494.857C807.086 494.857 809.895 498.857 809.333 506.857C809.333 514.286 809.614 524 810.176 536C815.234 601.714 820.853 665.143 827.034 726.286C833.778 787.429 843.05 850.286 854.851 914.857C860.47 943.429 867.775 964.857 876.766 979.143C885.757 992.857 895.31 1002 905.425 1006.57C916.102 1010.57 926.217 1012.57 935.77 1012.57C939.704 1012.57 943.356 1012.57 946.728 1012.57C950.1 1012 953.19 1011.71 956 1011.71L948.414 1025.43C939.985 1024.86 932.679 1024.57 926.498 1024.57C920.317 1024.57 914.697 1024.57 909.64 1024.57C897.277 1024.57 887.724 1024.86 880.981 1025.43C874.799 1026 866.932 1026 857.379 1025.43C828.158 1023.71 799.78 1022.86 772.245 1022.86C748.082 1022.86 723.356 1023.71 698.069 1025.43L706.498 1011.71C714.365 1011.71 723.918 1011.71 735.157 1011.71C746.396 1011.14 756.23 1008.57 764.659 1004C773.65 999.429 778.146 990.857 778.146 978.286C778.146 964 777.022 943.714 774.774 917.429C772.526 891.143 769.435 862 765.502 830C761.568 797.429 757.354 765.143 752.858 733.143C748.925 701.143 744.991 672.286 741.057 646.571C737.124 620.286 733.752 600.571 730.943 587.429C709.027 622.286 687.673 657.143 666.881 692C646.089 726.286 625.579 760.571 605.349 794.857L652.552 792.286C665.476 791.714 679.244 790.571 693.854 788.857C708.465 786.571 721.39 784.286 732.628 782C743.867 779.143 750.891 776.571 753.701 774.286C754.825 773.143 755.949 772.571 757.073 772.571C759.321 772.571 759.04 774.857 756.23 779.429C752.296 787.429 744.71 795.143 733.471 802.571C722.794 810 713.522 815.714 705.655 819.714C695.54 824.286 685.144 826.571 674.467 826.571C664.352 826.571 653.676 826.571 642.437 826.571C631.76 826.571 621.926 826.571 612.935 826.571C604.506 826 596.358 825.714 588.49 825.714C580.061 840.571 571.913 855.429 564.046 870.286C556.179 885.143 548.312 900 540.444 914.857C533.139 929.143 527.801 941.429 524.429 951.714C521.057 962 519.372 970.857 519.372 978.286C519.372 993.714 524.991 1003.71 536.23 1008.29C547.469 1012.29 559.55 1014.29 572.475 1014.29C576.971 1014.29 581.185 1014.29 585.119 1014.29C589.614 1013.71 593.829 1013.43 597.762 1013.43L587.648 1028Z" fill="#E3E3E3"/>
<path d="M366.775 1649.32C361.459 1649.32 354.594 1648.58 346.178 1647.09C337.983 1645.61 328.017 1643.87 316.278 1641.89C307.419 1640.41 299.335 1639.67 292.027 1639.67C287.154 1639.67 282.171 1639.92 277.077 1640.41C272.205 1640.41 266.668 1640.9 260.466 1641.89C257.366 1641.89 252.604 1642.14 246.181 1642.64C239.758 1643.13 232.671 1643.63 224.919 1644.12C217.168 1644.12 209.638 1644.12 202.329 1644.12H201.997C201.332 1644.12 201 1643.63 201 1642.64C201 1640.66 201.554 1638.43 202.661 1635.96C203.99 1632.99 205.097 1631.5 205.983 1631.5C211.299 1632 216.06 1632.49 220.268 1632.99C224.476 1632.99 228.242 1632.99 231.564 1632.99C239.537 1632.99 245.295 1631.25 248.839 1627.79C252.604 1623.83 255.594 1615.91 257.809 1604.03C260.023 1591.66 262.792 1573.1 266.114 1548.36C268.993 1526.58 271.651 1504.31 274.087 1481.54C276.745 1458.77 279.07 1436.75 281.064 1415.47C279.513 1415.96 277.741 1416.21 275.748 1416.21C273.755 1416.21 271.983 1416.46 270.433 1416.95H266.778C264.121 1416.95 262.792 1416.21 262.792 1414.73C262.792 1412.25 264.342 1409.53 267.443 1406.56C270.544 1403.1 272.98 1400.87 274.752 1399.88C275.416 1398.89 276.413 1398.39 277.741 1398.39C279.292 1398.39 280.842 1398.15 282.393 1397.65C284.829 1370.43 286.822 1345.93 288.372 1324.16C289.923 1302.38 290.919 1285.8 291.362 1274.42C291.805 1269.96 292.137 1264.77 292.359 1258.83C292.58 1252.39 292.691 1245.96 292.691 1239.53C292.691 1230.12 292.027 1221.46 290.698 1213.54C289.369 1205.62 286.601 1200.92 282.393 1199.44C280.621 1198.45 277.741 1197.95 273.755 1197.95C269.768 1197.46 265.56 1197.21 261.131 1197.21C256.923 1196.72 253.268 1196.47 250.168 1196.47H242.859L246.181 1184.59L252.493 1183.85C254.265 1183.35 256.037 1183.11 257.809 1183.11C259.802 1183.11 261.684 1183.11 263.456 1183.11C272.094 1183.11 280.399 1183.85 288.372 1185.33C296.567 1186.32 304.429 1186.82 311.96 1186.82C329.013 1186.82 344.627 1186.57 358.802 1186.07C372.976 1185.08 388.369 1183.6 404.98 1181.62C410.738 1180.63 414.725 1182.36 416.939 1186.82C419.375 1190.78 420.594 1197.95 420.594 1208.35C420.594 1213.79 420.261 1220.72 419.597 1229.13C418.268 1245.46 417.382 1259.32 416.939 1270.71C416.496 1282.09 415.832 1296.19 414.946 1313.02C414.725 1314.51 414.503 1317.48 414.282 1321.93C414.06 1325.89 413.949 1327.87 413.949 1327.87L409.298 1321.19C409.298 1321.19 409.409 1319.21 409.631 1315.25C409.852 1311.29 409.963 1308.81 409.963 1307.82C410.184 1303.87 410.295 1300.15 410.295 1296.69C410.516 1293.22 410.627 1289.76 410.627 1286.3C410.627 1261.05 408.08 1242.25 402.986 1229.88C398.114 1217.01 391.691 1210.57 383.718 1210.57C376.409 1211.07 369.543 1211.32 363.121 1211.32C356.919 1211.32 351.161 1213.05 345.845 1216.51C340.751 1219.48 336.322 1225.67 332.557 1235.07C328.792 1243.98 325.913 1257.84 323.919 1276.64C319.047 1320.2 315.171 1358.8 312.292 1392.46C318.715 1391.47 325.58 1390.48 332.889 1389.49C340.198 1388.5 347.949 1387.75 356.144 1387.26C361.238 1386.76 366.553 1385.77 372.09 1384.29C377.849 1382.31 382.943 1380.08 387.372 1377.61C391.802 1375.13 394.681 1372.91 396.01 1370.93C397.117 1369.44 397.671 1369.19 397.671 1370.18C397.892 1371.17 397.671 1372.91 397.006 1375.38C395.235 1382.8 392.245 1389.73 388.037 1396.17C383.829 1402.6 380.174 1407.3 377.074 1410.27C374.416 1413.24 371.758 1415.22 369.1 1416.21C366.443 1416.71 363.563 1416.95 360.463 1416.95C348.503 1416.95 338.647 1416.71 330.896 1416.21C323.144 1415.72 316.278 1415.47 310.298 1415.47C308.527 1437.74 306.755 1460.51 304.983 1483.77C303.433 1507.03 301.772 1533.26 300 1562.46C299.778 1564.93 299.557 1567.66 299.335 1570.63C299.335 1573.1 299.335 1575.58 299.335 1578.05C299.335 1590.92 301.661 1601.31 306.312 1609.23C310.963 1617.15 320.376 1621.11 334.55 1621.11C351.161 1621.11 365.889 1610.47 378.735 1589.19C391.58 1567.41 401.657 1540.44 408.966 1508.27L412.288 1513.46C411.181 1518.91 409.631 1527.57 407.637 1539.45C405.865 1551.32 403.651 1564.44 400.993 1578.79C398.335 1592.65 395.345 1605.52 392.023 1617.4C388.701 1629.27 385.047 1638.18 381.06 1644.12C378.624 1647.59 373.862 1649.32 366.775 1649.32Z" fill="#E3E3E3"/>
<path d="M535.345 1656C523.164 1656 511.315 1652.29 499.798 1644.86C488.503 1637.44 478.426 1625.56 469.567 1609.23C460.708 1592.9 453.842 1571.62 448.969 1545.39C444.097 1520.14 442.214 1493.42 443.322 1465.21C444.429 1431.55 448.416 1399.88 455.281 1370.18C462.147 1340.49 471.006 1313.52 481.859 1289.27C492.932 1265.01 505.114 1244.23 518.402 1226.91C531.912 1209.58 545.754 1196.22 559.929 1186.82C574.325 1177.41 588.167 1172.71 601.456 1172.71H602.785C606.771 1172.71 611.422 1173.7 616.738 1175.68C622.274 1177.66 627.147 1181.62 631.355 1187.56C635.563 1193.5 637.667 1202.65 637.667 1215.03C637.667 1221.46 637.003 1228.14 635.674 1235.07C634.123 1242.5 632.684 1250.17 631.355 1258.09C630.026 1265.51 628.697 1273.18 627.368 1281.1L617.402 1339.75L613.415 1333.07C613.415 1333.07 613.969 1329.6 615.077 1322.67C616.405 1315.25 617.623 1306.83 618.731 1297.43C620.06 1288.03 620.835 1280.36 621.056 1274.42C621.721 1256.6 619.728 1243.98 615.077 1236.56C610.647 1228.64 605.11 1223.94 598.466 1222.45C591.822 1220.97 585.509 1220.22 579.53 1220.22C566.905 1220.22 554.392 1224.93 541.989 1234.33C529.587 1243.73 518.181 1257.1 507.771 1274.42C497.583 1291.74 489.278 1312.77 482.855 1337.52C476.432 1361.77 472.667 1389.24 471.56 1419.92C471.338 1423.39 471.228 1426.85 471.228 1430.32C471.228 1433.29 471.228 1436.26 471.228 1439.23C471.228 1488.22 477.54 1526.58 490.164 1554.29C502.788 1582.01 522.278 1595.87 548.634 1595.87C561.036 1595.87 574.103 1590.42 587.835 1579.54C601.788 1568.15 613.526 1552.81 623.05 1533.51C625.486 1528.56 627.701 1523.36 629.694 1517.92C631.909 1512.47 634.123 1507.03 636.338 1501.59L638.996 1511.24C638.996 1511.24 637.778 1514.21 635.342 1520.14C632.905 1525.59 629.915 1532.77 626.372 1541.67C622.828 1550.09 619.285 1558.75 615.741 1567.66C612.419 1576.57 609.872 1583.99 608.1 1589.93C604.113 1602.3 600.016 1613.44 595.808 1623.34C591.6 1633.23 585.952 1640.16 578.865 1644.12C571.999 1648.08 564.801 1651.05 557.271 1653.03C549.741 1655.01 542.432 1656 535.345 1656Z" fill="#E3E3E3"/>
<path d="M793.281 1650.06C788.187 1650.06 781.653 1649.32 773.68 1647.83C765.929 1645.85 756.627 1643.38 745.774 1640.41C744.224 1639.92 742.674 1639.67 741.123 1639.67C739.573 1639.67 737.912 1639.67 736.14 1639.67C729.274 1639.67 721.633 1640.41 713.217 1641.89C705.023 1643.38 696.717 1644.12 688.301 1644.12H634.815C633.264 1644.12 632.489 1641.89 632.489 1637.44C632.489 1635.46 632.711 1633.73 633.154 1632.24C633.818 1630.76 634.593 1630.51 635.479 1631.5C640.352 1632 644.449 1632.24 647.771 1632.24C651.093 1632.24 654.194 1632.24 657.073 1632.24C662.388 1632.24 667.261 1630.51 671.69 1627.05C676.12 1623.58 680.107 1616.65 683.65 1606.26C687.194 1595.87 690.294 1580.28 692.952 1559.49C694.281 1549.59 695.942 1534.99 697.935 1515.69C700.15 1496.39 702.476 1474.36 704.912 1449.62C707.348 1424.87 709.674 1399.14 711.888 1372.41C714.325 1345.19 716.318 1318.96 717.868 1293.72C719.64 1267.98 720.858 1244.97 721.523 1224.68C721.966 1215.27 720.969 1208.35 718.533 1203.89C716.096 1199.44 713.882 1196.72 711.888 1195.73C709.674 1194.24 706.13 1193.25 701.258 1192.76C696.385 1192.26 691.734 1192.01 687.305 1192.01C684.647 1192.01 682.211 1192.26 679.996 1192.76C678.003 1192.76 676.452 1192.76 675.345 1192.76C674.237 1192.76 673.684 1191.77 673.684 1189.79C673.684 1187.81 674.127 1185.83 675.013 1183.85C676.12 1181.37 677.227 1180.14 678.335 1180.14C685.643 1181.13 693.617 1181.87 702.254 1182.36C711.113 1182.86 719.972 1183.35 728.831 1183.85C737.69 1183.85 745.664 1183.85 752.751 1183.85C756.294 1183.85 761.721 1183.35 769.029 1182.36C776.338 1181.37 784.422 1180.63 793.281 1180.14C802.14 1179.15 810.335 1178.65 817.865 1178.65H818.197C819.526 1178.65 820.19 1180.88 820.19 1185.33C820.19 1187.31 819.969 1189.04 819.526 1190.53C819.083 1191.52 818.308 1191.77 817.2 1191.27C812.328 1190.78 807.788 1190.53 803.58 1190.53C799.371 1190.03 795.496 1189.79 791.952 1189.79C783.093 1189.79 776.116 1191.77 771.023 1195.73C766.15 1199.68 762.274 1207.85 759.395 1220.22C756.516 1232.6 753.637 1251.4 750.757 1276.64C747.657 1304.36 744.999 1329.85 742.784 1353.11C740.57 1375.88 738.576 1397.9 736.804 1419.18C735.254 1440.46 733.593 1462.73 731.821 1486C730.271 1508.76 728.61 1534.25 726.838 1562.46C726.617 1564.93 726.395 1567.66 726.174 1570.63C726.174 1573.1 726.174 1575.58 726.174 1578.05C726.174 1590.92 728.499 1601.31 733.15 1609.23C738.023 1617.15 747.546 1621.11 761.721 1621.11C778.331 1621.11 792.949 1610.96 805.573 1590.67C818.197 1569.88 828.163 1543.41 835.472 1511.24C835.915 1509.75 836.358 1509.01 836.801 1509.01C837.244 1509.01 837.687 1510 838.13 1511.98C838.573 1513.46 838.573 1515.2 838.13 1517.18C837.022 1522.62 835.583 1531.28 833.811 1543.16C832.039 1554.54 829.935 1567.16 827.499 1581.02C825.063 1594.38 822.184 1607 818.861 1618.88C815.761 1630.26 812.217 1638.68 808.231 1644.12C805.351 1648.08 800.368 1650.06 793.281 1650.06Z" fill="#E3E3E3"/>
<path d="M1121.2 1645.61C1104.36 1644.62 1090.63 1643.87 1080 1643.38C1069.37 1642.88 1060.73 1642.39 1054.09 1641.89C1047.67 1641.4 1042.02 1641.4 1037.15 1641.89C1033.82 1641.89 1028.95 1642.14 1022.53 1642.64C1016.11 1643.13 1009.02 1643.63 1001.27 1644.12C993.516 1644.12 986.097 1644.12 979.009 1644.12H978.677C978.013 1644.12 977.681 1643.38 977.681 1641.89C977.681 1639.92 978.234 1637.69 979.342 1635.21C980.67 1632.24 981.778 1631.01 982.664 1631.5C987.979 1631.5 992.741 1631.75 996.949 1632.24C1001.16 1632.24 1004.81 1632.24 1007.91 1632.24C1015.89 1632.24 1021.75 1630.51 1025.52 1627.05C1029.28 1623.09 1032.27 1615.17 1034.49 1603.29C1036.7 1591.41 1039.36 1573.1 1042.46 1548.36C1049.33 1494.41 1054.98 1442.69 1059.41 1393.2C1063.83 1343.21 1068.15 1291.24 1072.36 1237.3C1073.03 1227.4 1072.14 1218.99 1069.7 1212.06C1067.49 1204.63 1064.94 1200.43 1062.06 1199.44C1059.85 1198.45 1056.08 1197.71 1050.77 1197.21C1045.67 1196.72 1040.58 1196.47 1035.49 1196.47C1030.39 1195.97 1027.07 1195.97 1025.52 1196.47C1024.41 1196.47 1023.86 1195.48 1023.86 1193.5C1023.86 1191.52 1024.41 1189.54 1025.52 1187.56C1026.63 1185.08 1027.73 1183.85 1028.84 1183.85C1037.92 1183.85 1048.55 1184.34 1060.73 1185.33C1072.92 1186.32 1084.21 1186.82 1094.62 1186.82H1100.6C1107.02 1186.32 1115.11 1184.1 1124.85 1180.14C1134.82 1175.68 1144.78 1173.45 1154.75 1173.45C1163.39 1173.45 1171.47 1176.92 1179 1183.85C1186.53 1190.78 1192.62 1201.66 1197.27 1216.51C1202.15 1230.86 1204.58 1249.67 1204.58 1272.93C1204.58 1277.88 1204.47 1283.08 1204.25 1288.52C1204.03 1293.47 1203.7 1298.67 1203.25 1304.11C1201.26 1326.88 1196.83 1349.15 1189.97 1370.93C1183.32 1392.7 1175.35 1412.01 1166.05 1428.83C1156.74 1445.66 1147.22 1458.28 1137.48 1466.69C1131.27 1471.64 1125.74 1475.11 1120.86 1477.09C1116.21 1479.07 1112.01 1480.06 1108.24 1480.06C1102.7 1480.06 1098.27 1478.57 1094.95 1475.6C1091.63 1472.63 1089.42 1469.66 1088.31 1466.69C1086.98 1462.73 1086.31 1458.53 1086.31 1454.07C1086.31 1449.62 1086.87 1445.91 1087.98 1442.94C1089.08 1439.47 1090.08 1438.98 1090.97 1441.45C1092.52 1444.92 1093.84 1448.63 1094.95 1452.59C1096.06 1456.55 1097.28 1459.76 1098.61 1462.24C1101.49 1467.19 1104.7 1469.66 1108.24 1469.66C1118.21 1469.66 1127.51 1461.25 1136.15 1444.42C1145.01 1427.1 1152.31 1404.58 1158.07 1376.87C1163.83 1349.15 1167.15 1319.7 1168.04 1288.52C1168.93 1260.81 1166.71 1237.79 1161.4 1219.48C1156.3 1201.17 1148.88 1192.01 1139.14 1192.01C1128.95 1192.01 1121.31 1199.93 1116.21 1215.77C1111.34 1231.61 1106.8 1251.65 1102.59 1275.9C1101.71 1281.84 1100.27 1292.48 1098.27 1307.82C1096.28 1323.17 1093.84 1344.94 1090.97 1373.15C1088.31 1400.87 1085.1 1436.75 1081.33 1480.8C1081.11 1484.76 1080.56 1493.42 1079.67 1506.78C1078.78 1519.65 1078.01 1534 1077.34 1549.84C1076.68 1565.18 1076.57 1578.55 1077.01 1589.93C1077.46 1600.82 1079.23 1610.22 1082.33 1618.14C1085.43 1625.56 1089.3 1629.77 1093.96 1630.76C1098.39 1632.24 1103.92 1632.99 1110.57 1632.99C1113.22 1632.99 1115.88 1632.99 1118.54 1632.99C1121.2 1632.49 1123.63 1632 1125.85 1631.5C1126.51 1631.5 1126.84 1632.24 1126.84 1633.73C1126.84 1635.71 1126.18 1638.43 1124.85 1641.89C1123.74 1644.86 1122.53 1646.1 1121.2 1645.61Z" fill="#E3E3E3"/>
<path d="M1253.67 1653.03C1248.14 1653.03 1242.82 1651.55 1237.73 1648.58C1232.85 1645.11 1228.98 1639.17 1226.1 1630.76C1224.55 1625.81 1222.22 1618.88 1219.12 1609.97C1216.24 1600.57 1214.8 1591.66 1214.8 1583.25C1214.8 1577.31 1215.47 1572.61 1216.8 1569.14C1219.9 1560.23 1222.33 1552.07 1224.11 1544.64C1226.1 1537.22 1228.09 1528.31 1230.09 1517.92C1232.08 1507.03 1234.52 1492.68 1237.39 1474.86C1238.5 1469.42 1239.39 1463.48 1240.05 1457.04C1240.72 1450.61 1242.05 1448.63 1244.04 1451.1C1244.92 1452.09 1244.92 1457.04 1244.04 1465.95C1243.15 1474.36 1242.49 1482.04 1242.05 1488.96C1241.82 1491.44 1241.71 1493.91 1241.71 1496.39C1241.71 1498.86 1241.71 1501.34 1241.71 1503.81C1241.71 1528.56 1243.93 1549.1 1248.36 1565.43C1253.01 1581.76 1258.88 1593.89 1265.96 1601.81C1273.27 1609.23 1281.03 1612.94 1289.22 1612.94C1298.3 1612.94 1307.16 1608.49 1315.8 1599.58C1324.66 1590.18 1332.08 1576.57 1338.06 1558.75C1344.04 1540.93 1347.47 1519.4 1348.35 1494.16C1348.8 1477.83 1347.36 1464.96 1344.04 1455.56C1340.71 1446.15 1336.17 1439.23 1330.41 1434.77C1324.66 1430.32 1318.23 1427.35 1311.15 1425.86C1304.28 1424.38 1297.41 1423.14 1290.55 1422.15C1274.16 1419.68 1261.76 1409.53 1253.34 1391.71C1244.92 1373.4 1241.05 1353.6 1241.71 1332.32C1242.38 1308.57 1246.47 1286.79 1254 1266.99C1261.54 1247.2 1270.95 1229.88 1282.24 1215.03C1293.54 1200.18 1305.5 1188.8 1318.12 1180.88C1330.75 1172.96 1342.6 1169 1353.67 1169C1362.31 1169 1369.95 1171.72 1376.59 1177.17C1383.24 1182.61 1388.11 1191.02 1391.21 1202.41C1394.31 1214.29 1395.86 1224.18 1395.86 1232.1C1395.86 1237.05 1395.31 1242 1394.2 1246.95C1393.09 1251.4 1391.43 1256.6 1389.22 1262.54C1386.56 1270.46 1384.23 1277.14 1382.24 1282.58C1380.47 1288.03 1378.59 1294.71 1376.59 1302.63C1374.82 1310.05 1372.49 1320.45 1369.62 1333.81C1368.51 1339.25 1367.29 1341.97 1365.96 1341.97C1365.08 1341.97 1364.63 1340.24 1364.63 1336.78C1364.63 1333.81 1365.08 1330.59 1365.96 1327.13C1367.95 1312.77 1368.95 1300.15 1368.95 1289.27C1368.95 1270.95 1366.85 1255.61 1362.64 1243.24C1358.65 1230.37 1353.45 1220.72 1347.02 1214.29C1340.6 1207.36 1333.74 1203.89 1326.43 1203.89C1318.9 1203.89 1311.59 1207.6 1304.5 1215.03C1297.64 1221.96 1291.77 1233.09 1286.89 1248.43C1282.24 1263.28 1279.47 1282.34 1278.59 1305.6C1278.15 1319.46 1279.47 1330.59 1282.58 1339C1285.68 1347.42 1289.77 1353.85 1294.87 1358.31C1300.18 1362.76 1305.61 1365.98 1311.15 1367.96C1316.9 1369.94 1322.22 1371.17 1327.09 1371.67C1331.96 1371.67 1335.51 1371.92 1337.72 1372.41C1355.66 1373.9 1367.84 1381.32 1374.27 1394.68C1380.91 1407.55 1384.01 1423.14 1383.57 1441.45C1382.68 1467.19 1378.59 1492.68 1371.28 1517.92C1364.19 1542.66 1354.67 1565.43 1342.71 1586.22C1330.75 1606.51 1317.13 1622.84 1301.84 1635.21C1286.56 1647.09 1270.5 1653.03 1253.67 1653.03Z" fill="#E3E3E3"/>
<path d="M1554.18 1649.32C1548.87 1649.32 1542 1648.58 1533.58 1647.09C1525.39 1645.61 1515.42 1643.87 1503.68 1641.89C1494.83 1640.41 1486.74 1639.67 1479.43 1639.67C1474.56 1639.67 1469.58 1639.92 1464.48 1640.41C1459.61 1640.41 1454.07 1640.9 1447.87 1641.89C1444.77 1641.89 1440.01 1642.14 1433.59 1642.64C1427.16 1643.13 1420.08 1643.63 1412.33 1644.12C1404.57 1644.12 1397.04 1644.12 1389.74 1644.12H1389.4C1388.74 1644.12 1388.41 1643.63 1388.41 1642.64C1388.41 1640.66 1388.96 1638.43 1390.07 1635.96C1391.4 1632.99 1392.5 1631.5 1393.39 1631.5C1398.7 1632 1403.47 1632.49 1407.67 1632.99C1411.88 1632.99 1415.65 1632.99 1418.97 1632.99C1426.94 1632.99 1432.7 1631.25 1436.25 1627.79C1440.01 1623.83 1443 1615.91 1445.21 1604.03C1447.43 1591.66 1450.2 1573.1 1453.52 1548.36C1456.4 1526.58 1459.06 1504.31 1461.49 1481.54C1464.15 1458.77 1466.48 1436.75 1468.47 1415.47C1466.92 1415.96 1465.15 1416.21 1463.15 1416.21C1461.16 1416.21 1459.39 1416.46 1457.84 1416.95H1454.18C1451.53 1416.95 1450.2 1416.21 1450.2 1414.73C1450.2 1412.25 1451.75 1409.53 1454.85 1406.56C1457.95 1403.1 1460.39 1400.87 1462.16 1399.88C1462.82 1398.89 1463.82 1398.39 1465.15 1398.39C1466.7 1398.39 1468.25 1398.15 1469.8 1397.65C1472.24 1370.43 1474.23 1345.93 1475.78 1324.16C1477.33 1302.38 1478.33 1285.8 1478.77 1274.42C1479.21 1269.96 1479.54 1264.77 1479.77 1258.83C1479.99 1252.39 1480.1 1245.96 1480.1 1239.53C1480.1 1230.12 1479.43 1221.46 1478.1 1213.54C1476.78 1205.62 1474.01 1200.92 1469.8 1199.44C1468.03 1198.45 1465.15 1197.95 1461.16 1197.95C1457.17 1197.46 1452.97 1197.21 1448.54 1197.21C1444.33 1196.72 1440.67 1196.47 1437.57 1196.47H1430.27L1433.59 1184.59L1439.9 1183.85C1441.67 1183.35 1443.44 1183.11 1445.21 1183.11C1447.21 1183.11 1449.09 1183.11 1450.86 1183.11C1459.5 1183.11 1467.81 1183.85 1475.78 1185.33C1483.97 1186.32 1491.84 1186.82 1499.37 1186.82C1516.42 1186.82 1532.03 1186.57 1546.21 1186.07C1560.38 1185.08 1575.78 1183.6 1592.39 1181.62C1598.14 1180.63 1602.13 1182.36 1604.35 1186.82C1606.78 1190.78 1608 1197.95 1608 1208.35C1608 1213.79 1607.67 1220.72 1607 1229.13C1605.67 1245.46 1604.79 1259.32 1604.35 1270.71C1603.9 1282.09 1603.24 1296.19 1602.35 1313.02C1602.13 1314.51 1601.91 1317.48 1601.69 1321.93C1601.47 1325.89 1601.36 1327.87 1601.36 1327.87L1596.7 1321.19C1596.7 1321.19 1596.82 1319.21 1597.04 1315.25C1597.26 1311.29 1597.37 1308.81 1597.37 1307.82C1597.59 1303.87 1597.7 1300.15 1597.7 1296.69C1597.92 1293.22 1598.03 1289.76 1598.03 1286.3C1598.03 1261.05 1595.49 1242.25 1590.39 1229.88C1585.52 1217.01 1579.1 1210.57 1571.12 1210.57C1563.82 1211.07 1556.95 1211.32 1550.53 1211.32C1544.33 1211.32 1538.57 1213.05 1533.25 1216.51C1528.16 1219.48 1523.73 1225.67 1519.96 1235.07C1516.2 1243.98 1513.32 1257.84 1511.33 1276.64C1506.45 1320.2 1502.58 1358.8 1499.7 1392.46C1506.12 1391.47 1512.99 1390.48 1520.3 1389.49C1527.6 1388.5 1535.36 1387.75 1543.55 1387.26C1548.64 1386.76 1553.96 1385.77 1559.5 1384.29C1565.26 1382.31 1570.35 1380.08 1574.78 1377.61C1579.21 1375.13 1582.09 1372.91 1583.42 1370.93C1584.52 1369.44 1585.08 1369.19 1585.08 1370.18C1585.3 1371.17 1585.08 1372.91 1584.41 1375.38C1582.64 1382.8 1579.65 1389.73 1575.44 1396.17C1571.23 1402.6 1567.58 1407.3 1564.48 1410.27C1561.82 1413.24 1559.16 1415.22 1556.51 1416.21C1553.85 1416.71 1550.97 1416.95 1547.87 1416.95C1535.91 1416.95 1526.05 1416.71 1518.3 1416.21C1510.55 1415.72 1503.68 1415.47 1497.7 1415.47C1495.93 1437.74 1494.16 1460.51 1492.39 1483.77C1490.84 1507.03 1489.18 1533.26 1487.41 1562.46C1487.18 1564.93 1486.96 1567.66 1486.74 1570.63C1486.74 1573.1 1486.74 1575.58 1486.74 1578.05C1486.74 1590.92 1489.07 1601.31 1493.72 1609.23C1498.37 1617.15 1507.78 1621.11 1521.96 1621.11C1538.57 1621.11 1553.3 1610.47 1566.14 1589.19C1578.99 1567.41 1589.06 1540.44 1596.37 1508.27L1599.69 1513.46C1598.59 1518.91 1597.04 1527.57 1595.04 1539.45C1593.27 1551.32 1591.06 1564.44 1588.4 1578.79C1585.74 1592.65 1582.75 1605.52 1579.43 1617.4C1576.11 1629.27 1572.45 1638.18 1568.47 1644.12C1566.03 1647.59 1561.27 1649.32 1554.18 1649.32Z" fill="#E3E3E3"/>
<path d="M1138.56 1037.09C1125.52 1037.09 1113.02 1032.95 1101.05 1024.67C1089.34 1016.39 1079.76 1002.87 1072.31 984.105C1064.86 965.34 1061.14 940.504 1061.14 909.596C1061.14 902.421 1061.27 894.97 1061.54 887.243C1062.07 879.516 1062.87 871.514 1063.93 863.235C1069.25 814.114 1074.31 765.269 1079.1 716.7C1083.89 667.579 1088.28 618.734 1092.27 570.165C1093.06 559.127 1092.13 549.744 1089.47 542.017C1086.81 533.738 1083.62 529.047 1079.89 527.943C1077.23 526.839 1072.71 526.011 1066.33 525.459C1060.21 524.908 1054.09 524.632 1047.97 524.632C1042.11 524.08 1038.12 524.08 1036 524.632C1034.67 524.632 1034 523.528 1034 521.32C1034 519.112 1034.67 516.905 1036 514.697C1037.33 511.937 1038.66 510.558 1039.99 510.558C1050.63 510.558 1063 511.11 1077.1 512.213C1091.47 513.317 1104.77 513.869 1117.01 513.869C1120.2 513.869 1123.26 513.869 1126.19 513.869C1129.12 513.869 1131.91 513.593 1134.57 513.041C1139.09 512.489 1145.61 512.213 1154.12 512.213C1162.64 511.661 1171.15 510.834 1179.67 509.73C1181.79 509.73 1182.86 512.213 1182.86 517.181C1182.86 519.388 1182.59 521.32 1182.06 522.976C1181.53 524.08 1180.6 524.356 1179.27 523.804C1168.89 522.7 1160.78 523.528 1154.92 526.287C1149.07 529.047 1144.41 535.67 1140.95 546.156C1137.76 556.643 1134.44 573.201 1130.98 595.829C1127.78 618.458 1124.59 643.846 1121.4 671.994C1118.21 699.59 1115.15 727.738 1112.22 756.438C1109.56 784.586 1107.03 811.63 1104.64 837.57C1102.51 863.511 1100.65 885.587 1099.05 903.801C1098.78 907.664 1098.52 911.252 1098.25 914.563C1098.25 917.875 1098.25 921.186 1098.25 924.498C1098.25 951.542 1102.51 972.239 1111.02 986.589C1119.54 1000.94 1129.25 1008.67 1140.16 1009.77C1140.95 1009.77 1142.55 1010.05 1144.95 1010.6C1147.61 1010.6 1150.27 1010.6 1152.93 1010.6C1155.59 1010.05 1157.18 1009.77 1157.72 1009.77C1169.16 1008.67 1180.2 1000.66 1190.84 985.761C1201.48 970.859 1208.53 948.506 1211.99 918.703C1216.25 883.38 1220.51 844.469 1224.76 801.972C1229.02 758.922 1233.01 716.148 1236.74 673.65C1240.73 630.6 1244.18 591.69 1247.11 556.919C1247.91 546.432 1246.85 538.706 1243.92 533.738C1241.26 528.219 1238.73 524.908 1236.34 523.804C1234.47 522.7 1232.74 522.148 1231.15 522.148C1229.55 522.148 1228.09 522.148 1226.76 522.148C1225.43 522.148 1224.1 522.148 1222.77 522.148C1221.44 522.148 1219.97 522.424 1218.38 522.976C1217.05 522.976 1216.38 522.148 1216.38 520.492C1216.38 518.285 1217.05 516.077 1218.38 513.869C1219.97 511.11 1221.3 509.73 1222.37 509.73C1230.88 510.834 1237.13 511.661 1241.13 512.213C1245.38 512.765 1249.9 513.041 1254.69 513.041C1257.09 513.041 1259.75 513.041 1262.68 513.041C1265.6 512.489 1269.19 512.213 1273.45 512.213C1277.44 512.213 1283.3 512.213 1291.01 512.213C1298.73 511.661 1307.24 511.386 1316.55 511.386C1325.86 510.834 1334.78 510.558 1343.29 510.558C1344.09 510.558 1344.49 511.11 1344.49 512.213C1344.49 514.421 1343.82 517.457 1342.49 521.32C1341.16 524.632 1339.97 526.011 1338.9 525.459C1326.93 524.908 1317.35 526.563 1310.17 530.427C1303.25 534.29 1297.66 542.845 1293.41 556.091C1289.41 569.337 1285.69 590.034 1282.23 618.182C1279.57 638.051 1276.51 664.267 1273.05 696.831C1269.59 728.842 1266.27 761.129 1263.07 793.693C1261.74 810.802 1260.41 828.74 1259.08 847.505C1258.02 866.27 1256.29 885.036 1253.9 903.801C1249.64 939.124 1242.99 966.444 1233.94 985.761C1224.9 1005.08 1213.72 1018.6 1200.42 1026.33C1187.38 1033.5 1172.35 1037.09 1155.32 1037.09H1138.56Z" fill="#E3E3E3"/>
<path d="M1772.94 1029.64C1766.56 1029.64 1758.31 1028.81 1748.2 1027.16C1738.36 1025.5 1726.38 1023.57 1712.28 1021.36C1701.64 1019.7 1691.93 1018.88 1683.15 1018.88C1677.3 1018.88 1671.31 1019.15 1665.19 1019.7C1659.34 1019.7 1652.69 1020.26 1645.24 1021.36C1641.51 1021.36 1635.79 1021.64 1628.08 1022.19C1620.36 1022.74 1611.85 1023.29 1602.53 1023.84C1593.22 1023.84 1584.18 1023.84 1575.4 1023.84H1575C1574.2 1023.84 1573.8 1023.29 1573.8 1022.19C1573.8 1019.98 1574.46 1017.5 1575.8 1014.74C1577.39 1011.43 1578.72 1009.77 1579.79 1009.77C1586.17 1010.32 1591.89 1010.87 1596.95 1011.43C1602 1011.43 1606.52 1011.43 1610.52 1011.43C1620.09 1011.43 1627.01 1009.49 1631.27 1005.63C1635.79 1001.21 1639.38 992.384 1642.04 979.138C1644.7 965.34 1648.03 944.643 1652.02 917.047C1655.48 892.762 1658.67 867.926 1661.6 842.538C1664.79 817.149 1667.58 792.589 1669.98 768.856C1668.12 769.408 1665.99 769.684 1663.59 769.684C1661.2 769.684 1659.07 769.96 1657.21 770.512H1652.82C1649.63 770.512 1648.03 769.684 1648.03 768.028C1648.03 765.269 1649.89 762.233 1653.62 758.922C1657.34 755.058 1660.27 752.575 1662.4 751.471C1663.19 750.367 1664.39 749.815 1665.99 749.815C1667.85 749.815 1669.71 749.539 1671.58 748.987C1674.5 718.632 1676.9 691.312 1678.76 667.027C1680.62 642.743 1681.82 624.253 1682.35 611.559C1682.88 606.592 1683.28 600.797 1683.55 594.174C1683.81 586.999 1683.95 579.824 1683.95 572.649C1683.95 562.162 1683.15 552.504 1681.55 543.673C1679.96 534.842 1676.63 529.599 1671.58 527.943C1669.45 526.839 1665.99 526.287 1661.2 526.287C1656.41 525.735 1651.36 525.459 1646.03 525.459C1640.98 524.908 1636.59 524.632 1632.86 524.632H1624.08L1628.08 511.386L1635.66 510.558C1637.79 510.006 1639.91 509.73 1642.04 509.73C1644.44 509.73 1646.7 509.73 1648.83 509.73C1659.2 509.73 1669.18 510.558 1678.76 512.213C1688.6 513.317 1698.05 513.869 1707.09 513.869C1727.58 513.869 1746.34 513.593 1763.36 513.041C1780.39 511.937 1798.88 510.282 1818.84 508.074C1825.76 506.97 1830.54 508.902 1833.2 513.869C1836.13 518.285 1837.59 526.287 1837.59 537.878C1837.59 543.949 1837.2 551.676 1836.4 561.058C1834.8 579.272 1833.74 594.725 1833.2 607.42C1832.67 620.114 1831.87 635.844 1830.81 654.609C1830.54 656.265 1830.28 659.576 1830.01 664.543C1829.75 668.959 1829.61 671.166 1829.61 671.166L1824.03 663.716C1824.03 663.716 1824.16 661.508 1824.42 657.092C1824.69 652.677 1824.82 649.918 1824.82 648.814C1825.09 644.398 1825.22 640.259 1825.22 636.395C1825.49 632.532 1825.62 628.669 1825.62 624.805C1825.62 596.657 1822.56 575.684 1816.44 561.886C1810.59 547.536 1802.87 540.361 1793.3 540.361C1784.52 540.913 1776.27 541.189 1768.55 541.189C1761.1 541.189 1754.19 543.121 1747.8 546.984C1741.68 550.296 1736.36 557.195 1731.84 567.681C1727.31 577.616 1723.86 593.07 1721.46 614.043C1715.61 662.612 1710.95 705.661 1707.49 743.192C1715.21 742.088 1723.46 740.984 1732.24 739.881C1741.02 738.777 1750.33 737.949 1760.17 737.397C1766.29 736.845 1772.68 735.741 1779.33 734.085C1786.25 731.878 1792.37 729.394 1797.69 726.634C1803.01 723.875 1806.47 721.391 1808.06 719.184C1809.39 717.528 1810.06 717.252 1810.06 718.356C1810.32 719.459 1810.06 721.391 1809.26 724.151C1807.13 732.43 1803.54 740.156 1798.48 747.331C1793.43 754.506 1789.04 759.75 1785.31 763.061C1782.12 766.373 1778.93 768.58 1775.74 769.684C1772.54 770.236 1769.09 770.512 1765.36 770.512C1750.99 770.512 1739.15 770.236 1729.84 769.684C1720.53 769.132 1712.28 768.856 1705.1 768.856C1702.97 793.693 1700.84 819.081 1698.71 845.021C1696.85 870.962 1694.86 900.213 1692.73 932.777C1692.46 935.536 1692.19 938.572 1691.93 941.883C1691.93 944.643 1691.93 947.403 1691.93 950.162C1691.93 964.512 1694.72 976.102 1700.31 984.933C1705.9 993.764 1717.2 998.179 1734.23 998.179C1754.19 998.179 1771.88 986.313 1787.31 962.58C1802.74 938.296 1814.85 908.216 1823.63 872.341L1827.62 878.137C1826.29 884.208 1824.42 893.866 1822.03 907.112C1819.9 920.358 1817.24 934.984 1814.05 950.99C1810.86 966.444 1807.26 980.794 1803.27 994.04C1799.28 1007.29 1794.89 1017.22 1790.1 1023.84C1787.18 1027.71 1781.46 1029.64 1772.94 1029.64Z" fill="#E3E3E3"/>
<path d="M1911.19 1033.78C1904.54 1033.78 1898.15 1032.12 1892.04 1028.81C1886.18 1024.95 1881.53 1018.32 1878.07 1008.94C1876.21 1003.42 1873.41 995.696 1869.69 985.761C1866.23 975.275 1864.5 965.34 1864.5 955.957C1864.5 949.334 1865.3 944.091 1866.89 940.228C1870.62 930.293 1873.54 921.186 1875.67 912.908C1878.07 904.629 1880.46 894.694 1882.86 883.104C1885.25 870.962 1888.18 854.956 1891.64 835.087C1892.97 829.016 1894.03 822.393 1894.83 815.218C1895.63 808.043 1897.22 805.835 1899.62 808.595C1900.68 809.698 1900.68 815.218 1899.62 825.152C1898.55 834.535 1897.76 843.09 1897.22 850.816C1896.96 853.576 1896.82 856.336 1896.82 859.095C1896.82 861.855 1896.82 864.615 1896.82 867.374C1896.82 894.97 1899.49 917.875 1904.81 936.088C1910.39 954.302 1917.44 967.824 1925.96 976.654C1934.74 984.933 1944.05 989.073 1953.89 989.073C1964.8 989.073 1975.44 984.105 1985.82 974.171C1996.46 963.684 2005.38 948.506 2012.56 928.637C2019.74 908.768 2023.87 884.76 2024.93 856.612C2025.46 838.398 2023.73 824.048 2019.74 813.562C2015.75 803.075 2010.3 795.349 2003.38 790.381C1996.46 785.414 1988.75 782.102 1980.23 780.447C1971.99 778.791 1963.74 777.411 1955.49 776.307C1935.8 773.548 1920.9 762.233 1910.79 742.364C1900.68 721.943 1896.03 699.866 1896.82 676.134C1897.62 649.642 1902.54 625.357 1911.59 603.28C1920.64 581.203 1931.94 561.886 1945.51 545.329C1959.08 528.771 1973.45 516.077 1988.61 507.246C2003.78 498.415 2018.01 494 2031.32 494C2041.69 494 2050.87 497.036 2058.85 503.107C2066.83 509.178 2072.69 518.56 2076.41 531.255C2080.14 544.501 2082 555.539 2082 564.37C2082 569.889 2081.33 575.408 2080 580.927C2078.67 585.895 2076.68 591.69 2074.02 598.313C2070.83 607.144 2068.03 614.595 2065.64 620.666C2063.51 626.737 2061.25 634.188 2058.85 643.019C2056.72 651.297 2053.93 662.888 2050.47 677.789C2049.14 683.861 2047.68 686.896 2046.08 686.896C2045.02 686.896 2044.49 684.964 2044.49 681.101C2044.49 677.789 2045.02 674.202 2046.08 670.339C2048.48 654.333 2049.67 640.259 2049.67 628.117C2049.67 607.696 2047.15 590.586 2042.09 576.788C2037.3 562.438 2031.05 551.676 2023.33 544.501C2015.62 536.774 2007.37 532.91 1998.59 532.91C1989.55 532.91 1980.77 537.05 1972.25 545.329C1964 553.056 1956.95 565.474 1951.1 582.583C1945.51 599.141 1942.19 620.39 1941.12 646.33C1940.59 661.784 1942.19 674.202 1945.91 683.585C1949.64 692.967 1954.56 700.142 1960.68 705.11C1967.06 710.077 1973.58 713.664 1980.23 715.872C1987.15 718.08 1993.54 719.459 1999.39 720.011C2005.24 720.011 2009.5 720.287 2012.16 720.839C2033.71 722.495 2048.34 730.774 2056.06 745.676C2064.04 760.026 2067.77 777.411 2067.23 797.832C2066.17 826.532 2061.25 854.956 2052.47 883.104C2043.95 910.7 2032.51 936.088 2018.15 959.269C2003.78 981.898 1987.42 1000.11 1969.06 1013.91C1950.7 1027.16 1931.41 1033.78 1911.19 1033.78Z" fill="#E3E3E3"/>
<path d="M1361.06 864.568L1331.41 884.582C1331.41 884.582 1525.13 1024.47 1507.18 1082.45C1501.79 1099.88 1608 1084.64 1608 1084.64L1361.06 864.568Z" fill="#E3E3E3"/>
<path d="M1426.71 1102.89C1401.64 1101.86 1381.2 1101.09 1365.37 1100.57C1349.54 1100.06 1336.67 1099.55 1326.78 1099.03C1317.22 1098.52 1308.81 1098.52 1301.55 1099.03C1296.6 1099.03 1289.35 1099.29 1279.78 1099.8C1270.22 1100.32 1259.67 1100.83 1248.12 1101.35C1236.58 1101.35 1225.53 1101.35 1214.98 1101.35H1214.48C1213.49 1101.35 1213 1100.57 1213 1099.03C1213 1096.97 1213.82 1094.66 1215.47 1092.08C1217.45 1089 1219.1 1087.71 1220.42 1088.22C1228.34 1088.22 1235.43 1088.48 1241.69 1089C1247.96 1089 1253.4 1089 1258.02 1089C1269.89 1089 1278.63 1087.2 1284.24 1083.59C1289.84 1079.48 1294.29 1071.24 1297.59 1058.89C1300.89 1046.55 1304.85 1027.51 1309.47 1001.78C1319.69 945.692 1328.1 891.92 1334.69 840.464C1341.29 788.494 1347.72 734.465 1353.99 678.378C1354.98 668.087 1353.66 659.339 1350.03 652.136C1346.73 644.417 1342.94 640.043 1338.65 639.014C1335.35 637.985 1329.75 637.213 1321.83 636.699C1314.25 636.184 1306.66 635.927 1299.08 635.927C1291.49 635.412 1286.54 635.412 1284.24 635.927C1282.59 635.927 1281.76 634.898 1281.76 632.84C1281.76 630.781 1282.59 628.723 1284.24 626.665C1285.89 624.092 1287.53 622.806 1289.18 622.806C1302.7 622.806 1318.53 623.32 1336.67 624.349C1354.81 625.379 1371.63 625.893 1387.13 625.893H1396.04C1405.6 625.379 1417.64 623.063 1432.15 618.947C1446.99 614.316 1461.83 612 1476.67 612C1489.53 612 1501.57 615.602 1512.79 622.806C1524 630.01 1533.07 641.33 1539.99 656.767C1547.25 671.689 1550.88 691.242 1550.88 715.426C1550.88 720.572 1550.71 725.975 1550.38 731.635C1550.05 736.781 1549.56 742.184 1548.9 747.844C1545.93 771.513 1539.33 794.669 1529.11 817.309C1519.22 839.95 1507.34 860.018 1493.49 877.513C1479.64 895.008 1465.46 908.129 1450.95 916.876C1441.71 922.022 1433.47 925.624 1426.21 927.682C1419.29 929.74 1413.02 930.77 1407.42 930.77C1399.17 930.77 1392.57 929.226 1387.63 926.139C1382.68 923.051 1379.38 919.964 1377.73 916.876C1375.75 912.76 1374.77 908.386 1374.77 903.755C1374.77 899.124 1375.59 895.265 1377.24 892.178C1378.89 888.576 1380.37 888.061 1381.69 890.634C1384 894.236 1385.98 898.095 1387.63 902.212C1389.28 906.328 1391.09 909.673 1393.07 912.245C1397.36 917.391 1402.14 919.964 1407.42 919.964C1422.26 919.964 1436.11 911.216 1448.97 893.721C1462.16 875.712 1473.04 852.299 1481.62 823.484C1490.19 794.669 1495.14 764.052 1496.46 731.635C1497.78 702.82 1494.48 678.893 1486.57 659.854C1478.98 640.815 1467.93 631.296 1453.42 631.296C1438.25 631.296 1426.87 639.529 1419.29 655.995C1412.03 672.461 1405.27 693.3 1399.01 718.514C1397.69 724.689 1395.54 735.752 1392.57 751.703C1389.61 767.654 1385.98 790.295 1381.69 819.625C1377.73 848.44 1372.95 885.746 1367.34 931.541C1367.02 935.658 1366.19 944.663 1364.87 958.556C1363.55 971.934 1362.4 986.857 1361.41 1003.32C1360.42 1019.27 1360.25 1033.17 1360.91 1045C1361.57 1056.32 1364.21 1066.1 1368.83 1074.33C1373.45 1082.05 1379.22 1086.42 1386.14 1087.45C1392.74 1089 1400.98 1089.77 1410.88 1089.77C1414.84 1089.77 1418.79 1089.77 1422.75 1089.77C1426.71 1089.25 1430.34 1088.74 1433.63 1088.22C1434.62 1088.22 1435.12 1089 1435.12 1090.54C1435.12 1092.6 1434.13 1095.43 1432.15 1099.03C1430.5 1102.12 1428.69 1103.4 1426.71 1102.89Z" fill="#E3E3E3"/>
<path d="M943.41 0L1006.17 410.5H880.652L943.41 0Z" fill="url(#paint0_linear_3_165)"/>
<path d="M2083 410.41L943.5 473.168V347.652L2083 410.41Z" fill="url(#paint1_linear_3_165)"/>
<path d="M943.59 1979L880.832 410.5H1006.35L943.59 1979Z" fill="url(#paint2_linear_3_165)"/>
<path d="M533 410.59L943.5 347.832V473.348L533 410.59Z" fill="url(#paint3_linear_3_165)"/>
<path d="M1268.41 142.275C1421.25 305.029 1413.22 560.868 1250.46 713.707C1087.71 866.547 831.869 858.51 679.03 695.756C632.2 645.888 600.475 587.28 583.674 525.575C604.424 582.24 638.79 635.146 686.501 679.078C843.255 823.417 1084.68 816.241 1225.74 663.049C1366.8 509.857 1354.08 268.659 1197.32 124.32C1111.57 45.3602 1000.48 11.7428 894.347 22.567C1026.69 -3.79889 1169.24 36.6646 1268.41 142.275Z" fill="url(#paint4_linear_3_165)"/>
<defs>
<linearGradient id="paint0_linear_3_165" x1="1308" y1="0" x2="1308" y2="1979" gradientUnits="userSpaceOnUse">
<stop stop-color="#A70000"/>
<stop offset="1" stop-color="#4A0000"/>
</linearGradient>
<linearGradient id="paint1_linear_3_165" x1="1308" y1="0" x2="1308" y2="1979" gradientUnits="userSpaceOnUse">
<stop stop-color="#A70000"/>
<stop offset="1" stop-color="#4A0000"/>
</linearGradient>
<linearGradient id="paint2_linear_3_165" x1="1308" y1="0" x2="1308" y2="1979" gradientUnits="userSpaceOnUse">
<stop stop-color="#A70000"/>
<stop offset="1" stop-color="#4A0000"/>
</linearGradient>
<linearGradient id="paint3_linear_3_165" x1="1308" y1="0" x2="1308" y2="1979" gradientUnits="userSpaceOnUse">
<stop stop-color="#A70000"/>
<stop offset="1" stop-color="#4A0000"/>
</linearGradient>
<linearGradient id="paint4_linear_3_165" x1="1308" y1="0" x2="1308" y2="1979" gradientUnits="userSpaceOnUse">
<stop stop-color="#A70000"/>
<stop offset="1" stop-color="#4A0000"/>
</linearGradient>
</defs>
</svg>
