<svg width="1219" height="960" viewBox="0 0 1219 960" fill="none" xmlns="http://www.w3.org/2000/svg">
<mask id="path-1-outside-1_2_2" maskUnits="userSpaceOnUse" x="-0.917969" y="-0.96875" width="1220" height="960" fill="black">
<rect fill="white" x="-0.917969" y="-0.96875" width="1220" height="960"/>
<path d="M1 958.031V1H498.656V92.6016H93.9688V435.766H370.141V527.367H93.9688V866.43H498.656V958.031H1ZM609.398 958.031V182.836H620.336L702.367 315.453V958.031H609.398ZM609.398 59.7891V1H691.43L1217.8 841.82V958.031H1171.31L609.398 59.7891ZM1124.83 580.688V1H1217.8V716.039H1206.86L1124.83 580.688Z"/>
</mask>
<path d="M1 958.031V1H498.656V92.6016H93.9688V435.766H370.141V527.367H93.9688V866.43H498.656V958.031H1ZM609.398 958.031V182.836H620.336L702.367 315.453V958.031H609.398ZM609.398 59.7891V1H691.43L1217.8 841.82V958.031H1171.31L609.398 59.7891ZM1124.83 580.688V1H1217.8V716.039H1206.86L1124.83 580.688Z" fill="white"/>
<path d="M1 958.031H0V959.031H1V958.031ZM1 1V0H0V1H1ZM498.656 1H499.656V0H498.656V1ZM498.656 92.6016V93.6016H499.656V92.6016H498.656ZM93.9688 92.6016V91.6016H92.9688V92.6016H93.9688ZM93.9688 435.766H92.9688V436.766H93.9688V435.766ZM370.141 435.766H371.141V434.766H370.141V435.766ZM370.141 527.367V528.367H371.141V527.367H370.141ZM93.9688 527.367V526.367H92.9688V527.367H93.9688ZM93.9688 866.43H92.9688V867.43H93.9688V866.43ZM498.656 866.43H499.656V865.43H498.656V866.43ZM498.656 958.031V959.031H499.656V958.031H498.656ZM1 958.031H2V1H1H0V958.031H1ZM1 1V2H498.656V1V0H1V1ZM498.656 1H497.656V92.6016H498.656H499.656V1H498.656ZM498.656 92.6016V91.6016H93.9688V92.6016V93.6016H498.656V92.6016ZM93.9688 92.6016H92.9688V435.766H93.9688H94.9688V92.6016H93.9688ZM93.9688 435.766V436.766H370.141V435.766V434.766H93.9688V435.766ZM370.141 435.766H369.141V527.367H370.141H371.141V435.766H370.141ZM370.141 527.367V526.367H93.9688V527.367V528.367H370.141V527.367ZM93.9688 527.367H92.9688V866.43H93.9688H94.9688V527.367H93.9688ZM93.9688 866.43V867.43H498.656V866.43V865.43H93.9688V866.43ZM498.656 866.43H497.656V958.031H498.656H499.656V866.43H498.656ZM498.656 958.031V957.031H1V958.031V959.031H498.656V958.031ZM609.398 958.031H608.398V959.031H609.398V958.031ZM609.398 182.836V181.836H608.398V182.836H609.398ZM620.336 182.836L621.186 182.31L620.893 181.836H620.336V182.836ZM702.367 315.453H703.367V315.169L703.218 314.927L702.367 315.453ZM702.367 958.031V959.031H703.367V958.031H702.367ZM609.398 59.7891H608.398V60.0761L608.551 60.3194L609.398 59.7891ZM609.398 1V0H608.398V1H609.398ZM691.43 1L692.277 0.46936L691.983 0H691.43V1ZM1217.8 841.82H1218.8V841.533L1218.64 841.29L1217.8 841.82ZM1217.8 958.031V959.031H1218.8V958.031H1217.8ZM1171.31 958.031L1170.46 958.562L1170.76 959.031H1171.31V958.031ZM1124.83 580.688H1123.83V580.967L1123.97 581.206L1124.83 580.688ZM1124.83 1V0H1123.83V1H1124.83ZM1217.8 1H1218.8V0H1217.8V1ZM1217.8 716.039V717.039H1218.8V716.039H1217.8ZM1206.86 716.039L1206 716.557L1206.3 717.039H1206.86V716.039ZM609.398 958.031H610.398V182.836H609.398H608.398V958.031H609.398ZM609.398 182.836V183.836H620.336V182.836V181.836H609.398V182.836ZM620.336 182.836L619.485 183.362L701.517 315.979L702.367 315.453L703.218 314.927L621.186 182.31L620.336 182.836ZM702.367 315.453H701.367V958.031H702.367H703.367V315.453H702.367ZM702.367 958.031V957.031H609.398V958.031V959.031H702.367V958.031ZM609.398 59.7891H610.398V1H609.398H608.398V59.7891H609.398ZM609.398 1V2H691.43V1V0H609.398V1ZM691.43 1L690.582 1.53064L1216.95 842.351L1217.8 841.82L1218.64 841.29L692.277 0.46936L691.43 1ZM1217.8 841.82H1216.8V958.031H1217.8H1218.8V841.82H1217.8ZM1217.8 958.031V957.031H1171.31V958.031V959.031H1217.8V958.031ZM1171.31 958.031L1172.16 957.501L610.246 59.2587L609.398 59.7891L608.551 60.3194L1170.46 958.562L1171.31 958.031ZM1124.83 580.688H1125.83V1H1124.83H1123.83V580.688H1124.83ZM1124.83 1V2H1217.8V1V0H1124.83V1ZM1217.8 1H1216.8V716.039H1217.8H1218.8V1H1217.8ZM1217.8 716.039V715.039H1206.86V716.039V717.039H1217.8V716.039ZM1206.86 716.039L1207.71 715.521L1125.68 580.169L1124.83 580.688L1123.97 581.206L1206 716.557L1206.86 716.039Z" fill="black" mask="url(#path-1-outside-1_2_2)"/>
</svg>
