<svg width="1213" height="971" viewBox="0 0 1213 971" fill="none" xmlns="http://www.w3.org/2000/svg">
<path d="M0 962.5V6.83594H497.656V98.4375H92.9688V441.602H369.141V533.203H92.9688V962.5H0ZM600.195 697.266V247.461C600.195 199.154 620.703 149.935 661.719 99.8047C716.406 34.1797 785.677 0.911458 869.531 0V92.9688C807.552 92.9688 758.333 123.503 721.875 184.57C703.646 215.56 694.531 243.815 694.531 269.336V697.266C694.531 761.068 725.065 812.109 786.133 850.391C816.211 868.62 843.555 877.734 868.164 877.734V970.703C816.211 970.703 764.258 952.018 712.305 914.648C638.477 859.961 601.107 787.5 600.195 697.266ZM943.359 970.703V877.734C981.641 877.734 1019.92 861.328 1058.2 828.516C1098.31 792.057 1118.82 748.307 1119.73 697.266V269.336C1119.73 226.497 1102.41 185.938 1067.77 147.656C1032.23 112.109 990.755 93.8802 943.359 92.9688V0C1035.42 0 1109.24 39.6484 1164.84 118.945C1196.74 164.518 1212.7 207.357 1212.7 247.461V697.266C1212.7 798.438 1167.58 875.911 1077.34 929.688C1029.95 957.031 985.286 970.703 943.359 970.703Z" fill="white"/>
</svg>
