<svg width="1560" height="971" viewBox="0 0 1560 971" fill="none" xmlns="http://www.w3.org/2000/svg">
<path d="M0 963.867V252.93H12.3047L92.9688 451.172V963.867H0ZM0 64.2578V6.83594H77.9297L411.523 814.844L664.453 243.359H678.125V444.336L448.438 963.867H374.609L0 64.2578ZM743.75 963.867V6.83594H836.719V963.867H743.75ZM947.461 697.266V247.461C947.461 199.154 967.969 149.935 1008.98 99.8047C1063.67 34.1797 1132.94 0.911458 1216.8 0V92.9688C1154.82 92.9688 1105.6 123.503 1069.14 184.57C1050.91 215.56 1041.8 243.815 1041.8 269.336V697.266C1041.8 761.068 1072.33 812.109 1133.4 850.391C1163.48 868.62 1190.82 877.734 1215.43 877.734V970.703C1163.48 970.703 1111.52 952.018 1059.57 914.648C985.742 859.961 948.372 787.5 947.461 697.266ZM1290.62 970.703V877.734C1328.91 877.734 1367.19 861.328 1405.47 828.516C1445.57 792.057 1466.08 748.307 1466.99 697.266V269.336C1466.99 226.497 1449.67 185.938 1415.04 147.656C1379.49 112.109 1338.02 93.8802 1290.62 92.9688V0C1382.68 0 1456.51 39.6484 1512.11 118.945C1544.01 164.518 1559.96 207.357 1559.96 247.461V697.266C1559.96 798.438 1514.84 875.911 1424.61 929.688C1377.21 957.031 1332.55 970.703 1290.62 970.703Z" fill="white"/>
</svg>
