<svg width="1275" height="962" viewBox="0 0 1275 962" fill="none" xmlns="http://www.w3.org/2000/svg">
<path d="M0 741.016L84.7656 710.938C89.3229 739.193 98.4375 763.802 112.109 784.766C125.781 805.729 140.365 821.68 155.859 832.617C172.266 843.555 187.76 852.669 202.344 859.961C217.839 866.341 230.599 870.443 240.625 872.266L255.664 873.633V961.133C173.633 961.133 105.273 926.497 50.5859 857.227C17.7734 815.299 0.911458 776.562 0 741.016ZM10.9375 257.031C10.9375 160.417 53.3203 87.0443 138.086 36.9141C180.013 12.3047 219.206 0 255.664 0V87.5C222.852 89.3229 190.495 104.818 158.594 133.984C122.135 168.62 103.451 211.003 102.539 261.133C102.539 323.112 147.201 368.685 236.523 397.852C259.31 405.143 293.49 413.802 339.062 423.828C381.901 433.854 411.523 441.602 427.93 447.07C509.049 476.237 561.458 519.076 585.156 575.586C597.005 604.753 602.93 638.477 602.93 676.758C602.93 756.055 572.396 824.87 511.328 883.203C455.729 935.156 392.383 961.133 321.289 961.133V873.633C359.57 872.721 399.219 854.492 440.234 818.945C485.807 777.93 509.049 729.622 509.961 674.023C509.961 602.93 461.654 552.799 365.039 523.633C343.164 517.253 310.352 509.505 266.602 500.391C221.94 491.276 192.773 483.984 179.102 478.516C103.451 448.438 54.2318 409.701 31.4453 362.305C17.7734 332.227 10.9375 297.135 10.9375 257.031ZM321.289 87.5V0C401.497 0 468.49 36.4583 522.266 109.375C546.875 143.099 561.003 173.633 564.648 200.977L477.148 229.688C471.68 205.078 462.109 183.203 448.438 164.062C435.677 144.922 422.005 130.794 407.422 121.68C393.75 112.565 380.078 105.273 366.406 99.8047C353.646 93.4245 343.164 89.7786 334.961 88.8672L321.289 87.5ZM697.266 957.031V0H790.234V957.031H697.266ZM855.859 531.836V442.969H1015.82C1026.76 442.969 1037.24 442.513 1047.27 441.602C1134.77 431.576 1178.52 371.875 1178.52 262.5C1178.52 243.359 1177.15 225.586 1174.41 209.18C1160.74 128.971 1107.42 88.8672 1014.45 88.8672H855.859V0H1037.7C1044.08 0 1050.46 0.455729 1056.84 1.36719C1201.76 11.3932 1274.22 98.8932 1274.22 263.867C1274.22 308.529 1269.21 348.177 1259.18 382.812C1231.84 479.427 1158.01 529.102 1037.7 531.836H855.859Z" fill="white"/>
</svg>
