<svg width="600" height="545" viewBox="0 0 600 545" fill="none" xmlns="http://www.w3.org/2000/svg">
<path d="M322.602 532.472L309.055 544.915L295.525 532.454L271.784 510.591C271.958 510.591 272.132 510.593 272.305 510.593H328.655C334.917 510.593 341.258 510.277 347.566 509.541L322.602 532.472ZM243.792 445.738C243.586 445.641 243.385 445.541 243.187 445.442H243.429C243.55 445.542 243.67 445.642 243.792 445.738ZM365.55 438.712C364.696 439.946 363.794 440.961 362.879 441.803L362.483 442.155C362.087 442.498 361.658 442.836 361.2 443.172V442.705L365.55 438.712ZM322.925 13.3145L583.764 263.732L599.129 278.482L583.443 292.89L429.595 434.197C430.479 428.307 430.9 422.375 430.95 416.516L430.951 416.477V416.438L430.956 415.385V378.636L525.908 291.423L458.572 280.731L430.956 292.031V242.393C430.956 216.569 424.039 189.063 401.7 169.77L401.645 169.723L401.59 169.675L400.862 169.056L400.799 169.002L400.734 168.948L399.769 168.153C388.842 159.291 376.283 153.772 363.159 150.562L308.995 65.0078L256.304 147.47C235.745 149.419 215.314 155.603 198.911 169.77L198.825 169.844L198.776 169.887L198.727 169.929L198.641 170.004L198.604 170.036L198.567 170.069C176.656 189.433 170.006 216.832 170.006 242.393V285.493L160.4 281.599V223.274L201.344 159.196L160.4 198.606V149.893H153.332L295.204 13.333L309.055 0L322.925 13.3145ZM232.2 419.76V432.228C231.026 428.543 230.217 423.83 230.042 417.772L232.2 419.76ZM170.006 362.484V391.742H160.4V353.639L170.006 362.484ZM100.4 298.385V352.763L96.2996 348.986V294.608L100.4 298.385ZM370.956 316.584L366.155 318.548V275.328L370.956 273.363V316.584ZM232.2 267.546V310.71L230.006 309.82V266.657L232.2 267.546ZM100.4 290.095L96.2996 290.757V209.893H100.4V290.095ZM468.242 241.766L510.039 248.402L414.181 156.375L468.242 241.766ZM191.747 222.512C191.773 222.373 191.797 222.234 191.824 222.096L191.848 221.973C191.813 222.152 191.781 222.332 191.747 222.512Z" fill="white"/>
<path d="M210.005 242.392C210.005 223.026 215.022 208.909 225.055 200.042C235.322 191.176 251.072 186.742 272.305 186.742H328.655C349.655 186.742 365.289 191.176 375.555 200.042C385.822 208.909 390.955 223.026 390.955 242.392V415.292C390.955 434.426 385.822 448.426 375.555 457.292C365.289 466.159 349.655 470.592 328.655 470.592H272.305C251.072 470.592 235.322 466.159 225.055 457.292C215.022 448.426 210.005 434.426 210.005 415.292V242.392ZM259.705 226.292C256.439 226.292 254.805 227.809 254.805 230.842V426.492C254.805 429.526 256.439 431.042 259.705 431.042H341.255C344.522 431.042 346.155 429.526 346.155 426.492V230.842C346.155 227.809 344.522 226.292 341.255 226.292H259.705Z" fill="white"/>
<path d="M168.7 467.442H14.35V431.742H76.3V236.442L18.2 271.792L0 241.342L79.8 189.892H120.4V431.742H168.7V467.442Z" fill="white"/>
</svg>
