<svg width="601" height="545" viewBox="0 0 601 545" fill="none" xmlns="http://www.w3.org/2000/svg">
<path d="M323.925 13.3145L584.764 263.732L600.129 278.482L584.443 292.89L323.602 532.472L310.055 544.915L296.525 532.454L188.7 433.157V378.779L190.006 379.982V382.292C190.006 404.632 195.896 425.215 211.811 439.279L211.897 439.354L211.983 439.429L212.713 440.049C228.118 452.934 249.219 457.593 272.305 457.593H274.282L290.073 472.135V457.593H328.655C329.129 457.593 329.601 457.587 330.073 457.583V472.216L347.261 456.427C363.152 454.303 377.424 449.105 388.628 439.429C400.72 428.985 407.181 414.881 409.694 399.083L526.908 291.423L459.572 280.731L410.956 300.625V257.404L427.512 250.63L410.956 224.478V209.393C410.956 186.778 404.92 165.977 388.628 151.906L387.9 151.287C378.704 143.593 367.509 138.825 355.09 136.236L309.995 65.0078L265.999 133.863C245.032 134.682 226.05 139.757 211.983 151.906L211.897 151.98L211.811 152.056C195.849 166.162 190.006 186.909 190.006 209.393V293.197L159.274 280.737L140.4 283.788V243.269L149.572 241.786L202.344 159.196L140.4 218.82V163.302L296.204 13.333L310.055 0L323.925 13.3145ZM330.073 437.582L328.655 437.593H290.073V412.442H330.073V437.582ZM250.472 435.667C239.893 433.578 231.42 429.789 225.055 424.292C218.427 418.434 213.988 410.336 211.739 399.997L250.472 435.667ZM168.7 414.739L151.329 398.742H168.7V414.739ZM188.659 378.742H140.4V334.3L188.659 378.742ZM120.4 238.071L109.873 248.205L120.4 246.502V287.022L93.7419 291.333L120.4 315.882V370.26L76.2996 329.647V225.002L120.4 182.553V238.071ZM390.956 308.809L361.2 320.984V277.765L390.956 265.589V308.809ZM56.2996 311.229L36.365 292.872L20.74 278.481L36.0437 263.751L56.2996 244.253V311.229ZM232.2 267.141V310.304L210.006 301.306V258.143L232.2 267.141ZM469.242 241.766L511.039 248.402L415.181 156.375L469.242 241.766ZM234.959 182.442H232.2V186.76L210.006 221.496V209.393C210.006 190.026 215.022 175.909 225.055 167.042C231.78 161.235 240.856 157.329 252.285 155.325L234.959 182.442ZM373.579 165.44C374.258 165.957 374.917 166.491 375.555 167.042C381.84 172.47 386.201 179.865 388.638 189.228L373.579 165.44Z" fill="white"/>
<path d="M210.005 209.392C210.005 190.026 215.022 175.909 225.055 167.042C235.322 158.176 251.072 153.742 272.305 153.742H328.655C349.655 153.742 365.289 158.176 375.555 167.042C385.822 175.909 390.955 190.026 390.955 209.392V382.292C390.955 401.426 385.822 415.426 375.555 424.292C365.289 433.159 349.655 437.592 328.655 437.592H272.305C251.072 437.592 235.322 433.159 225.055 424.292C215.022 415.426 210.005 401.426 210.005 382.292V209.392ZM259.705 193.292C256.439 193.292 254.805 194.809 254.805 197.842V393.492C254.805 396.526 256.439 398.042 259.705 398.042H341.255C344.522 398.042 346.155 396.526 346.155 393.492V197.842C346.155 194.809 344.522 193.292 341.255 193.292H259.705Z" fill="white"/>
<path d="M168.7 434.442H14.35V398.742H76.3V203.442L18.2 238.792L0 208.342L79.8 156.892H120.4V398.742H168.7V434.442Z" fill="white"/>
</svg>
