<svg width="551" height="518" viewBox="0 0 551 518" fill="none" xmlns="http://www.w3.org/2000/svg">
<path d="M281.672 6.65723L542.513 257.075L550.194 264.45L542.352 271.653L281.511 511.236L274.737 517.457L267.973 511.228L7.8125 271.645L0 264.45L7.65234 257.084L267.812 6.66602L274.737 0L281.672 6.65723ZM205.804 140.341H190.515L183.091 145.127L176.152 149.6L220.88 79.5996L44.5654 249.312L120.262 237.072L129.4 222.768L136.636 234.872L152.149 260.827L166.843 251.886L167.247 252.049V273.63L125.113 256.548L36.501 270.875L130.077 357.049V366.871H140.742L264.746 481.066V366.871H282.687V363.106C283.369 363.387 284.057 363.653 284.746 363.909V481.107L513.583 270.92L423.049 256.545L416.04 259.412V218.354L427.884 237.062L505.647 249.409L327.3 78.1875L366.423 139.983C360.448 138.878 354.439 138.451 348.66 138.451H341.782L274.707 32.5039L205.804 140.341Z" fill="white"/>
<mask id="path-2-outside-1_1_105" maskUnits="userSpaceOnUse" x="137.587" y="157.871" width="259" height="191" fill="black">
<rect fill="white" x="137.587" y="157.871" width="259" height="191"/>
<path d="M252.687 336.871H160.077V315.451H197.247V198.271L162.387 219.481L151.467 201.211L199.347 170.341H223.707V315.451H252.687V336.871ZM277.47 201.841C277.47 190.221 280.48 181.751 286.5 176.431C292.66 171.111 302.11 168.451 314.85 168.451H348.66C361.26 168.451 370.64 171.111 376.8 176.431C382.96 181.751 386.04 190.221 386.04 201.841V305.581C386.04 317.061 382.96 325.461 376.8 330.781C370.64 336.101 361.26 338.761 348.66 338.761H314.85C302.11 338.761 292.66 336.101 286.5 330.781C280.48 325.461 277.47 317.061 277.47 305.581V201.841ZM307.29 192.181C305.33 192.181 304.35 193.091 304.35 194.911V312.301C304.35 314.121 305.33 315.031 307.29 315.031H356.22C358.18 315.031 359.16 314.121 359.16 312.301V194.911C359.16 193.091 358.18 192.181 356.22 192.181H307.29Z"/>
</mask>
<path d="M252.687 336.871V346.871H262.687V336.871H252.687ZM160.077 336.871H150.077V346.871H160.077V336.871ZM160.077 315.451V305.451H150.077V315.451H160.077ZM197.247 315.451V325.451H207.247V315.451H197.247ZM197.247 198.271H207.247V180.481L192.049 189.728L197.247 198.271ZM162.387 219.481L153.803 224.612L158.974 233.263L167.585 228.024L162.387 219.481ZM151.467 201.211L146.048 192.807L137.924 198.044L142.883 206.342L151.467 201.211ZM199.347 170.341V160.341H196.403L193.928 161.936L199.347 170.341ZM223.707 170.341H233.707V160.341H223.707V170.341ZM223.707 315.451H213.707V325.451H223.707V315.451ZM252.687 315.451H262.687V305.451H252.687V315.451ZM252.687 336.871V326.871H160.077V336.871V346.871H252.687V336.871ZM160.077 336.871H170.077V315.451H160.077H150.077V336.871H160.077ZM160.077 315.451V325.451H197.247V315.451V305.451H160.077V315.451ZM197.247 315.451H207.247V198.271H197.247H187.247V315.451H197.247ZM197.247 198.271L192.049 189.728L157.189 210.938L162.387 219.481L167.585 228.024L202.445 206.814L197.247 198.271ZM162.387 219.481L170.971 214.351L160.051 196.081L151.467 201.211L142.883 206.342L153.803 224.612L162.387 219.481ZM151.467 201.211L156.886 209.616L204.766 178.746L199.347 170.341L193.928 161.936L146.048 192.807L151.467 201.211ZM199.347 170.341V180.341H223.707V170.341V160.341H199.347V170.341ZM223.707 170.341H213.707V315.451H223.707H233.707V170.341H223.707ZM223.707 315.451V325.451H252.687V315.451V305.451H223.707V315.451ZM252.687 315.451H242.687V336.871H252.687H262.687V315.451H252.687ZM286.5 176.431L279.964 168.863L279.921 168.9L279.878 168.938L286.5 176.431ZM376.8 176.431L383.336 168.863V168.863L376.8 176.431ZM376.8 330.781L370.264 323.213H370.264L376.8 330.781ZM286.5 330.781L279.878 338.274L279.921 338.312L279.964 338.349L286.5 330.781ZM277.47 201.841H287.47C287.47 191.779 290.067 186.625 293.122 183.924L286.5 176.431L279.878 168.938C270.894 176.878 267.47 188.663 267.47 201.841H277.47ZM286.5 176.431L293.036 183.999C296.597 180.924 303.22 178.451 314.85 178.451V168.451V158.451C301 158.451 288.723 161.298 279.964 168.863L286.5 176.431ZM314.85 168.451V178.451H348.66V168.451V158.451H314.85V168.451ZM348.66 168.451V178.451C360.117 178.451 366.687 180.91 370.264 183.999L376.8 176.431L383.336 168.863C374.593 161.312 362.404 158.451 348.66 158.451V168.451ZM376.8 176.431L370.264 183.999C373.411 186.717 376.04 191.845 376.04 201.841H386.04H396.04C396.04 188.597 392.509 176.785 383.336 168.863L376.8 176.431ZM386.04 201.841H376.04V305.581H386.04H396.04V201.841H386.04ZM386.04 305.581H376.04C376.04 315.391 373.436 320.474 370.264 323.213L376.8 330.781L383.336 338.349C392.485 330.448 396.04 318.731 396.04 305.581H386.04ZM376.8 330.781L370.264 323.213C366.687 326.302 360.117 328.761 348.66 328.761V338.761V348.761C362.404 348.761 374.593 345.9 383.336 338.349L376.8 330.781ZM348.66 338.761V328.761H314.85V338.761V348.761H348.66V338.761ZM314.85 338.761V328.761C303.22 328.761 296.597 326.288 293.036 323.213L286.5 330.781L279.964 338.349C288.723 345.914 301 348.761 314.85 348.761V338.761ZM286.5 330.781L293.122 323.288C290.043 320.567 287.47 315.458 287.47 305.581H277.47H267.47C267.47 318.665 270.917 330.355 279.878 338.274L286.5 330.781ZM277.47 305.581H287.47V201.841H277.47H267.47V305.581H277.47ZM307.29 192.181V182.181C304.945 182.181 301.323 182.71 298.281 185.536C295.098 188.491 294.35 192.262 294.35 194.911H304.35H314.35C314.35 195.74 314.092 198.146 311.89 200.192C309.827 202.107 307.675 202.181 307.29 202.181V192.181ZM304.35 194.911H294.35V312.301H304.35H314.35V194.911H304.35ZM304.35 312.301H294.35C294.35 314.95 295.098 318.721 298.281 321.677C301.323 324.502 304.945 325.031 307.29 325.031V315.031V305.031C307.675 305.031 309.827 305.105 311.89 307.021C314.092 309.066 314.35 311.472 314.35 312.301H304.35ZM307.29 315.031V325.031H356.22V315.031V305.031H307.29V315.031ZM356.22 315.031V325.031C358.565 325.031 362.187 324.502 365.23 321.677C368.412 318.721 369.16 314.95 369.16 312.301H359.16H349.16C349.16 311.472 349.418 309.066 351.621 307.021C353.683 305.105 355.835 305.031 356.22 305.031V315.031ZM359.16 312.301H369.16V194.911H359.16H349.16V312.301H359.16ZM359.16 194.911H369.16C369.16 192.262 368.412 188.491 365.23 185.536C362.187 182.71 358.565 182.181 356.22 182.181V192.181V202.181C355.835 202.181 353.683 202.107 351.621 200.192C349.418 198.146 349.16 195.74 349.16 194.911H359.16ZM356.22 192.181V182.181H307.29V192.181V202.181H356.22V192.181Z" fill="white" mask="url(#path-2-outside-1_1_105)"/>
</svg>
