<svg width="531" height="522" viewBox="0 0 531 522" fill="none" xmlns="http://www.w3.org/2000/svg">
<path d="M290.437 519.034L283.912 521.286L277.385 519.032L177.261 484.457H390.641L290.437 519.034ZM292.527 2.25293L429.527 50.2529L435.265 52.2637L438.914 57.1279L525.914 173.128L529.87 178.402L530.914 334.994L530.958 341.611L527.047 346.949L442.047 462.949L438.349 467.994L432.438 470.034L405.055 479.482V366.307H371.318L389.513 310.823C401.853 295.485 405.838 277.033 406.093 260.37L406.094 260.291V260.268L420.358 216.772L404.994 205.66C402.538 186.903 395.772 168.773 382.389 153.675L372.208 142.188L370.74 142.922C351.677 128.719 327.783 124.848 306.014 125.144L305.978 125.145H305.941L293.958 125.351L284.914 118.81L275.427 125.67L205.508 126.876L265.052 83.8096L265.531 48.9395L159.304 84.0938L128.168 126.907H78.7078L130.739 55.3643L134.523 50.1621L140.631 48.1406L279.631 2.14062L286.097 0L292.527 2.25293ZM100.4 358.748V424.457H99.4158L96.2996 420.267V353.233L100.4 358.748ZM459.886 224.601L405.209 391.323L425.539 417.8L490.869 328.644L490.102 213.612L459.886 224.601ZM222.206 415.939L218.105 415.96V375.959L222.206 375.938V415.939ZM176.492 302.966C172.314 307.901 168.759 313.379 165.894 319.348L165.889 319.357L165.885 319.366L165.742 319.664L165.599 319.963L165.467 320.265L165.343 320.548C163.092 325.662 161.504 331.012 160.4 336.403V251.963L176.492 302.966ZM100.4 186.907V222.09L96.2996 220.805V186.907H100.4ZM164.055 206.223L160.4 208.866V159.501L164.055 156.857V206.223ZM305.053 84.0117L447.043 186.708L477.729 175.549L410.561 85.9922L305.531 49.1924L305.053 84.0117ZM372.199 173.004C372.256 173.086 372.314 173.168 372.371 173.251C372.314 173.168 372.256 173.086 372.199 173.004Z" fill="white"/>
<path d="M234.855 310.407L316.055 269.457C317.922 268.29 319.322 267.24 320.255 266.307C321.189 265.374 321.655 263.74 321.655 261.407V210.657C321.655 206.924 319.789 205.057 316.055 205.057H204.055V166.907L305.555 165.157C327.722 164.69 343.355 169.707 352.455 180.207C361.555 190.474 366.105 204.824 366.105 223.257V258.607C366.105 271.207 363.072 280.774 357.005 287.307C351.172 293.84 341.722 300.49 328.655 307.257L249.905 346.807C246.639 348.44 244.539 350.307 243.605 352.407C242.672 354.507 242.205 357.657 242.205 361.857V406.307H365.055V444.457H198.105V361.857C198.105 350.89 199.389 342.49 201.955 336.657C204.755 330.824 208.839 326.04 214.205 322.307C219.805 318.574 226.689 314.607 234.855 310.407Z" fill="white"/>
<path d="M168.7 444.457H14.35V408.757H76.3V213.457L18.2 248.807L0 218.357L79.8 166.907H120.4V408.757H168.7V444.457Z" fill="white"/>
</svg>
