<svg width="558" height="522" viewBox="0 0 558 522" fill="none" xmlns="http://www.w3.org/2000/svg">
<path d="M319.527 2.25293L456.527 50.2529L462.265 52.2637L465.914 57.1279L552.914 173.128L556.87 178.402L557.914 334.994L557.958 341.611L554.047 346.949L469.047 462.949L465.349 467.994L459.438 470.034L317.437 519.034L310.912 521.286L304.385 519.032L159.549 469.017L155.865 464.062L140.544 443.457H208.079L310.916 478.97L420.136 441.28L400.093 415.178L385.055 415.253V375.252L395.401 375.2L447.358 216.772L380.723 168.577C377.718 160.267 373.362 152.641 367.423 145.94L367.421 145.941C355.632 132.45 338.719 126.32 319.964 124.632L311.914 118.81L304.499 124.172L234.58 125.377L292.052 83.8096L292.531 48.9395L186.304 84.0938L140.4 147.212V125.907H106.435L157.739 55.3643L161.523 50.1621L167.631 48.1406L306.631 2.14062L313.097 0L319.527 2.25293ZM120.4 145.907V174.712L118.467 177.371L120.4 177.977V219.896L105.729 215.298L104.959 328.568L120.4 349.334V387.757H148.97L168.7 414.29V423.457H125.672L76.2996 357.06V192.457L65.8396 198.82L65.9138 187.992L65.9578 181.563L91.8894 145.907H120.4ZM226.552 376.053L242.206 375.974V385.307H365.055V415.354L222.243 416.076L216.97 423.457H198.105V340.857C198.105 329.891 199.389 321.491 201.956 315.657C202.991 313.5 204.203 311.486 205.59 309.615L226.552 376.053ZM486.886 224.601L432.209 391.323L452.539 417.8L517.869 328.644L517.102 213.612L486.886 224.601ZM184.055 204.057H194.051L176.329 216.874L198.756 287.956C192.495 293.163 187.5 299.554 183.925 307.002L183.782 307.3L183.649 307.603C179.436 317.178 178.105 328.834 178.105 340.857V355.443L140.4 235.938V184.245L149.323 187.042L184.055 161.921V204.057ZM332.053 84.0117L474.043 186.708L504.729 175.549L437.561 85.9922L332.531 49.1924L332.053 84.0117ZM221.703 184.057H204.055V147.455L206.248 145.869L276.167 144.663L221.703 184.057Z" fill="white"/>
<path d="M234.855 289.407L316.055 248.457C317.922 247.29 319.322 246.24 320.255 245.307C321.189 244.374 321.655 242.74 321.655 240.407V189.657C321.655 185.924 319.789 184.057 316.055 184.057H204.055V145.907L305.555 144.157C327.722 143.69 343.355 148.707 352.455 159.207C361.555 169.474 366.105 183.824 366.105 202.257V237.607C366.105 250.207 363.072 259.774 357.005 266.307C351.172 272.84 341.722 279.49 328.655 286.257L249.905 325.807C246.639 327.44 244.539 329.307 243.605 331.407C242.672 333.507 242.205 336.657 242.205 340.857V385.307H365.055V423.457H198.105V340.857C198.105 329.89 199.389 321.49 201.955 315.657C204.755 309.824 208.839 305.04 214.205 301.307C219.805 297.574 226.689 293.607 234.855 289.407Z" fill="white"/>
<path d="M168.7 423.457H14.35V387.757H76.3V192.457L18.2 227.807L0 197.357L79.8 145.907H120.4V387.757H168.7V423.457Z" fill="white"/>
</svg>
