<svg width="474" height="501" viewBox="0 0 474 501" fill="none" xmlns="http://www.w3.org/2000/svg">
<path d="M241.329 1.12598L378.329 49.126L381.198 50.1309L383.022 52.5635L472 171.2L472.022 174.497L473.022 324.497L473.044 327.806L471.089 330.474L386.089 446.474L384.24 448.996L381.284 450.017L239.284 499.017L236.021 500.143L232.759 499.016L93.7588 451.016L90.8398 450.008L88.998 447.53L1.99805 330.53L0 327.844L0.0224609 324.495L1.02246 177.495L1.04492 174.281L90.9355 50.6816L92.8271 48.0801L95.8809 47.0703L234.881 1.07031L238.114 0L241.329 1.12598ZM142.188 395.537L112.941 436.481L236.022 478.984L361.634 435.64L330.112 394.588L142.188 395.537ZM20.0449 321.283L96.8594 424.586L125.983 383.812L70.0547 206.546L20.9297 191.148L20.0449 321.283ZM404.009 206.299L346.17 382.661L377.835 423.899L453 321.321L452.116 188.805L404.009 206.299ZM89.7295 202.437L144.341 375.525L327.766 374.6L384.244 202.386L237.022 95.9043L89.7295 202.437ZM105.218 65.0459L27.2979 172.185L76.2266 187.521L227.092 78.4043L227.831 24.4688L105.218 65.0459ZM247.092 78.5049L397.587 187.354L445.931 169.774L368.846 66.9951L247.831 24.5957L247.092 78.5049Z" fill="white"/>
<mask id="path-2-outside-1_1_114" maskUnits="userSpaceOnUse" x="126.022" y="163.563" width="213" height="164" fill="black">
<rect fill="white" x="126.022" y="163.563" width="213" height="164"/>
<path d="M226.822 317.563H147.442V299.203H179.302V198.763L149.422 216.943L140.062 201.283L181.102 174.823H201.982V299.203H226.822V317.563ZM260.845 248.623L302.605 227.563C303.565 226.963 304.285 226.423 304.765 225.943C305.245 225.463 305.485 224.623 305.485 223.423V197.323C305.485 195.403 304.525 194.443 302.605 194.443H245.005V174.823L297.205 173.923C308.605 173.683 316.645 176.263 321.325 181.663C326.005 186.943 328.345 194.323 328.345 203.803V221.983C328.345 228.463 326.785 233.383 323.665 236.743C320.665 240.103 315.805 243.523 309.085 247.003L268.585 267.343C266.905 268.183 265.825 269.143 265.345 270.223C264.865 271.303 264.625 272.923 264.625 275.083V297.943H327.805V317.563H241.945V275.083C241.945 269.443 242.605 265.123 243.925 262.123C245.365 259.123 247.465 256.663 250.225 254.743C253.105 252.823 256.645 250.783 260.845 248.623Z"/>
</mask>
<path d="M226.822 317.563V327.563H236.822V317.563H226.822ZM147.442 317.563H137.442V327.563H147.442V317.563ZM147.442 299.203V289.203H137.442V299.203H147.442ZM179.302 299.203V309.203H189.302V299.203H179.302ZM179.302 198.763H189.302V180.974L174.105 190.22L179.302 198.763ZM149.422 216.943L140.839 222.074L146.01 230.725L154.62 225.486L149.422 216.943ZM140.062 201.283L134.644 192.879L126.52 198.117L131.479 206.414L140.062 201.283ZM181.102 174.823V164.823H178.158L175.684 166.419L181.102 174.823ZM201.982 174.823H211.982V164.823H201.982V174.823ZM201.982 299.203H191.982V309.203H201.982V299.203ZM226.822 299.203H236.822V289.203H226.822V299.203ZM226.822 317.563V307.563H147.442V317.563V327.563H226.822V317.563ZM147.442 317.563H157.442V299.203H147.442H137.442V317.563H147.442ZM147.442 299.203V309.203H179.302V299.203V289.203H147.442V299.203ZM179.302 299.203H189.302V198.763H179.302H169.302V299.203H179.302ZM179.302 198.763L174.105 190.22L144.225 208.4L149.422 216.943L154.62 225.486L184.5 207.306L179.302 198.763ZM149.422 216.943L158.006 211.813L148.646 196.153L140.062 201.283L131.479 206.414L140.839 222.074L149.422 216.943ZM140.062 201.283L145.481 209.688L186.521 183.228L181.102 174.823L175.684 166.419L134.644 192.879L140.062 201.283ZM181.102 174.823V184.823H201.982V174.823V164.823H181.102V174.823ZM201.982 174.823H191.982V299.203H201.982H211.982V174.823H201.982ZM201.982 299.203V309.203H226.822V299.203V289.203H201.982V299.203ZM226.822 299.203H216.822V317.563H226.822H236.822V299.203H226.822ZM260.845 248.623L256.342 239.695L256.307 239.712L256.272 239.731L260.845 248.623ZM302.605 227.563L307.108 236.492L307.517 236.286L307.905 236.043L302.605 227.563ZM304.765 225.943L297.694 218.872L297.694 218.872L304.765 225.943ZM245.005 194.443H235.005V204.443H245.005V194.443ZM245.005 174.823L244.833 164.825L235.005 164.994V174.823H245.005ZM297.205 173.923L297.378 183.922L297.397 183.922L297.416 183.921L297.205 173.923ZM321.325 181.663L313.768 188.213L313.805 188.255L313.842 188.297L321.325 181.663ZM323.665 236.743L316.337 229.939L316.271 230.01L316.206 230.083L323.665 236.743ZM309.085 247.003L313.573 255.94L313.629 255.912L313.684 255.883L309.085 247.003ZM268.585 267.343L273.057 276.288L273.065 276.284L273.073 276.28L268.585 267.343ZM265.345 270.223L274.483 274.285L274.483 274.285L265.345 270.223ZM264.625 297.943H254.625V307.943H264.625V297.943ZM327.805 297.943H337.805V287.943H327.805V297.943ZM327.805 317.563V327.563H337.805V317.563H327.805ZM241.945 317.563H231.945V327.563H241.945V317.563ZM243.925 262.123L234.91 257.796L234.839 257.945L234.772 258.096L243.925 262.123ZM250.225 254.743L244.678 246.423L244.596 246.478L244.515 246.534L250.225 254.743ZM260.845 248.623L265.348 257.552L307.108 236.492L302.605 227.563L298.102 218.635L256.342 239.695L260.845 248.623ZM302.605 227.563L307.905 236.043C309.142 235.27 310.585 234.266 311.836 233.015L304.765 225.943L297.694 218.872C297.792 218.774 297.86 218.716 297.884 218.695C297.909 218.674 297.905 218.679 297.865 218.708C297.781 218.772 297.603 218.897 297.305 219.083L302.605 227.563ZM304.765 225.943L311.836 233.015C315.196 229.655 315.485 225.401 315.485 223.423H305.485H295.485C295.485 223.414 295.48 222.943 295.69 222.206C295.906 221.45 296.436 220.131 297.694 218.872L304.765 225.943ZM305.485 223.423H315.485V197.323H305.485H295.485V223.423H305.485ZM305.485 197.323H315.485C315.485 194.822 314.853 191.109 311.836 188.092C308.82 185.076 305.107 184.443 302.605 184.443V194.443V204.443C302.024 204.443 299.751 204.291 297.694 202.235C295.637 200.178 295.485 197.905 295.485 197.323H305.485ZM302.605 194.443V184.443H245.005V194.443V204.443H302.605V194.443ZM245.005 194.443H255.005V174.823H245.005H235.005V194.443H245.005ZM245.005 174.823L245.178 184.822L297.378 183.922L297.205 173.923L297.033 163.925L244.833 164.825L245.005 174.823ZM297.205 173.923L297.416 183.921C307.6 183.707 311.951 186.116 313.768 188.213L321.325 181.663L328.882 175.114C321.34 166.411 309.61 163.66 296.995 163.926L297.205 173.923ZM321.325 181.663L313.842 188.297C316.414 191.198 318.345 195.918 318.345 203.803H328.345H338.345C338.345 192.729 335.597 182.689 328.809 175.03L321.325 181.663ZM328.345 203.803H318.345V221.983H328.345H338.345V203.803H328.345ZM328.345 221.983H318.345C318.345 226.983 317.142 229.073 316.337 229.939L323.665 236.743L330.993 243.548C336.429 237.694 338.345 229.944 338.345 221.983H328.345ZM323.665 236.743L316.206 230.083C314.384 232.123 310.759 234.875 304.487 238.124L309.085 247.003L313.684 255.883C320.852 252.172 326.946 248.084 331.125 243.404L323.665 236.743ZM309.085 247.003L304.597 238.067L264.097 258.407L268.585 267.343L273.073 276.28L313.573 255.94L309.085 247.003ZM268.585 267.343L264.113 258.399C261.507 259.702 258.044 262.029 256.207 266.162L265.345 270.223L274.483 274.285C274.031 275.304 273.452 275.907 273.159 276.168C272.881 276.415 272.782 276.426 273.057 276.288L268.585 267.343ZM265.345 270.223L256.207 266.162C254.866 269.18 254.625 272.493 254.625 275.083H264.625H274.625C274.625 274.349 274.668 273.914 274.697 273.714C274.711 273.622 274.715 273.627 274.693 273.711C274.671 273.793 274.611 273.997 274.483 274.285L265.345 270.223ZM264.625 275.083H254.625V297.943H264.625H274.625V275.083H264.625ZM264.625 297.943V307.943H327.805V297.943V287.943H264.625V297.943ZM327.805 297.943H317.805V317.563H327.805H337.805V297.943H327.805ZM327.805 317.563V307.563H241.945V317.563V327.563H327.805V317.563ZM241.945 317.563H251.945V275.083H241.945H231.945V317.563H241.945ZM241.945 275.083H251.945C251.945 269.972 252.582 267.28 253.078 266.151L243.925 262.123L234.772 258.096C232.629 262.967 231.945 268.915 231.945 275.083H241.945ZM243.925 262.123L252.941 266.451C253.625 265.025 254.579 263.897 255.936 262.953L250.225 254.743L244.515 246.534C240.352 249.43 237.106 253.222 234.91 257.796L243.925 262.123ZM250.225 254.743L255.772 263.064C258.249 261.413 261.442 259.561 265.419 257.516L260.845 248.623L256.272 239.731C251.848 242.006 247.961 244.234 244.678 246.423L250.225 254.743Z" fill="white" mask="url(#path-2-outside-1_1_114)"/>
</svg>
