<svg width="607" height="424" viewBox="0 0 607 424" fill="none" xmlns="http://www.w3.org/2000/svg">
<path d="M317.329 14.1816L584.829 282.182L606.348 303.74L578.012 314.916L310.512 420.416L303.174 423.31L295.836 420.416L268.474 409.624V366.625L283.174 372.423V353.211H315.674V268.811H283.174V76.6582L268.474 91.3857V66.1299L267.499 66.1055L237.929 65.3662L289.019 14.1816L303.174 0L317.329 14.1816ZM246.474 357.948V400.947L198.474 382.017V339.018L246.474 357.948ZM176.474 353.211V373.34L125.435 353.211H176.474ZM323.174 372.423L534.999 288.88L323.174 76.6582V372.423ZM293.674 290.811V331.211H283.174V290.811H293.674ZM246.474 87.5859V113.427L198.474 161.516V128.811H187.06L186.716 128.815L186.703 128.816C184.905 128.866 183.379 129.292 182.367 130.304C181.506 131.165 180.4 132.554 179.061 134.43L179.023 134.481L178.993 134.538L124.847 235.28L71.3477 288.88L178.68 331.211H69.6523L47.6738 322.542V296.466L96.4121 207.147L216.498 86.8369L246.474 87.5859ZM25.7959 290.631L25.6738 290.854V313.865L0 303.74L21.5186 282.182L41.125 262.538L25.7959 290.631Z" fill="white"/>
<path d="M197.474 403.811V332.211H46.6738V296.211L137.474 129.811C143.074 119.144 148.14 110.611 152.674 104.211C157.207 97.5439 162.941 92.7439 169.874 89.8105C177.074 86.6105 186.941 85.1439 199.474 85.4105L247.474 86.6105V289.811H294.674V332.211H247.474V403.811H197.474ZM179.874 135.011L96.6738 289.811H197.474V129.811H187.074C185.207 129.811 183.874 130.211 183.074 131.011C182.274 131.811 181.207 133.144 179.874 135.011Z" fill="white"/>
</svg>
