<svg width="571" height="399" viewBox="0 0 571 399" fill="none" xmlns="http://www.w3.org/2000/svg">
<path d="M292.415 7.09082L559.915 275.091L570.674 285.87L556.506 291.458L289.006 396.958L285.337 398.405L281.668 396.958L14.168 291.458L0 285.87L10.7588 275.091L278.259 7.09082L285.337 0L292.415 7.09082ZM295.337 115.655H275.337V38.3291L35.6738 278.44L275.337 372.961V330.655H295.337V372.961L535 278.439L295.337 38.3291V115.655Z" fill="white"/>
<mask id="path-2-outside-1_1_102" maskUnits="userSpaceOnUse" x="190.837" y="130.655" width="144" height="180" fill="black">
<rect fill="white" x="190.837" y="130.655" width="144" height="180"/>
<path d="M276.237 300.655V264.855H200.837V246.855L246.237 163.655C249.037 158.322 251.57 154.055 253.837 150.855C256.104 147.522 258.97 145.122 262.437 143.655C266.037 142.055 270.97 141.322 277.237 141.455L301.237 142.055V243.655H324.837V264.855H301.237V300.655H276.237ZM267.437 166.255L225.837 243.655H276.237V163.655H271.037C270.104 163.655 269.437 163.855 269.037 164.255C268.637 164.655 268.104 165.322 267.437 166.255Z"/>
</mask>
<path d="M276.237 300.655H266.237V310.655H276.237V300.655ZM276.237 264.855H286.237V254.855H276.237V264.855ZM200.837 264.855H190.837V274.855H200.837V264.855ZM200.837 246.855L192.059 242.065L190.837 244.304V246.855H200.837ZM246.237 163.655L255.015 168.445L255.054 168.375L255.091 168.304L246.237 163.655ZM253.837 150.855L261.997 156.635L262.052 156.557L262.106 156.478L253.837 150.855ZM262.437 143.655L266.333 152.865L266.416 152.83L266.498 152.793L262.437 143.655ZM277.237 141.455L277.487 131.458L277.468 131.458L277.45 131.458L277.237 141.455ZM301.237 142.055H311.237V132.302L301.487 132.058L301.237 142.055ZM301.237 243.655H291.237V253.655H301.237V243.655ZM324.837 243.655H334.837V233.655H324.837V243.655ZM324.837 264.855V274.855H334.837V264.855H324.837ZM301.237 264.855V254.855H291.237V264.855H301.237ZM301.237 300.655V310.655H311.237V300.655H301.237ZM267.437 166.255L259.3 160.443L258.93 160.961L258.629 161.521L267.437 166.255ZM225.837 243.655L217.029 238.921L209.109 253.655H225.837V243.655ZM276.237 243.655V253.655H286.237V243.655H276.237ZM276.237 163.655H286.237V153.655H276.237V163.655ZM269.037 164.255L276.108 171.326L276.108 171.326L269.037 164.255ZM276.237 300.655H286.237V264.855H276.237H266.237V300.655H276.237ZM276.237 264.855V254.855H200.837V264.855V274.855H276.237V264.855ZM200.837 264.855H210.837V246.855H200.837H190.837V264.855H200.837ZM200.837 246.855L209.615 251.645L255.015 168.445L246.237 163.655L237.459 158.865L192.059 242.065L200.837 246.855ZM246.237 163.655L255.091 168.304C257.782 163.179 260.084 159.337 261.997 156.635L253.837 150.855L245.677 145.075C243.057 148.774 240.292 153.465 237.383 159.007L246.237 163.655ZM253.837 150.855L262.106 156.478C263.371 154.618 264.766 153.528 266.333 152.865L262.437 143.655L258.541 134.446C253.175 136.716 248.836 140.425 245.568 145.232L253.837 150.855ZM262.437 143.655L266.498 152.793C268.191 152.041 271.454 151.334 277.024 151.453L277.237 141.455L277.45 131.458C270.487 131.309 263.883 132.07 258.376 134.517L262.437 143.655ZM277.237 141.455L276.987 151.452L300.987 152.052L301.237 142.055L301.487 132.058L277.487 131.458L277.237 141.455ZM301.237 142.055H291.237V243.655H301.237H311.237V142.055H301.237ZM301.237 243.655V253.655H324.837V243.655V233.655H301.237V243.655ZM324.837 243.655H314.837V264.855H324.837H334.837V243.655H324.837ZM324.837 264.855V254.855H301.237V264.855V274.855H324.837V264.855ZM301.237 264.855H291.237V300.655H301.237H311.237V264.855H301.237ZM301.237 300.655V290.655H276.237V300.655V310.655H301.237V300.655ZM267.437 166.255L258.629 161.521L217.029 238.921L225.837 243.655L234.645 248.389L276.245 170.989L267.437 166.255ZM225.837 243.655V253.655H276.237V243.655V233.655H225.837V243.655ZM276.237 243.655H286.237V163.655H276.237H266.237V243.655H276.237ZM276.237 163.655V153.655H271.037V163.655V173.655H276.237V163.655ZM271.037 163.655V153.655C269.088 153.655 265.146 154.004 261.966 157.184L269.037 164.255L276.108 171.326C274.898 172.537 273.602 173.116 272.71 173.384C271.856 173.64 271.235 173.655 271.037 173.655V163.655ZM269.037 164.255L261.966 157.184C260.956 158.194 260.031 159.419 259.3 160.443L267.437 166.255L275.574 172.068C275.835 171.702 276.023 171.455 276.146 171.302C276.205 171.228 276.235 171.193 276.238 171.19C276.243 171.184 276.198 171.236 276.108 171.326L269.037 164.255Z" fill="white" mask="url(#path-2-outside-1_1_102)"/>
</svg>
