<svg width="588" height="424" viewBox="0 0 588 424" fill="none" xmlns="http://www.w3.org/2000/svg">
<path d="M298.655 14.1816L566.155 282.182L587.674 303.74L559.338 314.916L291.838 420.416L284.5 423.31L277.162 420.416L241.8 406.469V371.642H262.52L264.5 372.423V371.642H289V249.241H264.5V76.6582L241.8 99.4004V47.0293L237.661 46.9258L270.345 14.1816L284.5 0L298.655 14.1816ZM181.8 339.806V382.806L171.8 378.861V335.862L181.8 339.806ZM304.5 372.423L516.325 288.88L304.5 76.6582V372.423ZM110.387 311.642H21V309.241H104.301L110.387 311.642ZM33.3828 279.773L21 302.812V300.743L65.2383 219.671L66.207 218.7L33.3828 279.773ZM181.8 105.548V159.513L171.8 169.531V112.91L179.213 105.482L181.8 105.548Z" fill="white"/>
<path d="M150.8 404.241V332.641H0V296.641L90.8 130.241C96.4 119.575 101.467 111.041 106 104.641C110.533 97.9747 116.267 93.1747 123.2 90.2413C130.4 87.0413 140.267 85.5747 152.8 85.8413L200.8 87.0413V290.241H248V332.641H200.8V404.241H150.8ZM133.2 135.441L50 290.241H150.8V130.241H140.4C138.533 130.241 137.2 130.641 136.4 131.441C135.6 132.241 134.533 133.575 133.2 135.441Z" fill="white"/>
</svg>
