<svg width="456" height="525" viewBox="0 0 456 525" fill="none" xmlns="http://www.w3.org/2000/svg">
<path d="M238.2 5.77344L445.7 125.573L455.7 131.347V392.853L445.7 398.626L238.2 518.426L228.2 524.199L218.2 518.426L162.584 486.315C174.071 482.818 184.396 477.422 193.17 469.745C195.903 467.353 198.395 464.803 200.662 462.111L208.2 466.464V451.222C215.857 437.607 219.2 421.439 219.2 403.894V338.693C219.2 320.655 216.051 303.838 208.2 290.05V275.44L105.755 216.294H185.756L228.2 240.799L396.738 143.493L228.2 46.1875L81.6512 130.796L76.4285 130.699L76.4295 130.698C48.8761 130.106 24.4369 136.469 6.367 152.921L5.51154 153.712C3.81673 155.301 2.21361 156.947 0.700012 158.646V131.347L10.7 125.573L218.2 5.77344L228.2 0L238.2 5.77344ZM182.954 451.888C182.01 452.859 181.026 453.795 180 454.693C169.387 463.98 154.74 469.415 136.06 471.002L66.5897 430.894H146.591L182.954 451.888ZM248.2 275.44V466.464L415.7 369.758V178.734L248.2 275.44ZM151.115 196.294H71.1141L40.7 178.734V310.894H27.2V408.152L10.7 398.626L0.700012 392.853V207.373C2.67697 191.03 8.84338 178.003 19.2 168.294C31.5694 156.682 49.196 150.805 72.0799 150.663L151.115 196.294Z" fill="white"/>
<path d="M74.8 471.494C50 471.494 31.3333 466.294 18.8 455.894C6.26667 445.227 0 428.56 0 405.894V219.494C0 197.36 6.4 180.294 19.2 168.294C32.2667 156.027 51.2 150.16 76 150.694L183.2 152.694V196.294H58C53.4667 196.294 51.2 198.56 51.2 203.094V273.094H126.4C151.2 273.094 169.467 278.16 181.2 288.294C193.2 298.427 199.2 315.227 199.2 338.694V403.894C199.2 426.56 192.8 443.494 180 454.694C167.2 465.894 148.533 471.494 124 471.494H74.8ZM58 426.294H141.2C145.2 426.294 147.2 424.16 147.2 419.894V322.294C147.2 317.76 145.2 315.494 141.2 315.494H51.2V419.894C51.2 424.16 53.4667 426.294 58 426.294Z" fill="white"/>
</svg>
