<svg width="435" height="502" viewBox="0 0 435 502" fill="none" xmlns="http://www.w3.org/2000/svg">
<path d="M222.5 2.88672L430 122.687L435 125.573V375.531L430 378.418L222.5 498.219L217.5 501.105L212.5 498.219L5 378.418L0 375.531V125.573L5 122.687L212.5 2.88672L217.5 0L222.5 2.88672ZM28.96 131.946L126.5 188.26V211.354L20 149.867V363.984L207.5 472.237V372.347H227.5V472.237L415 363.984V149.867L308.5 211.354V188.26L406.039 131.946L217.5 23.0938L28.96 131.946Z" fill="white"/>
<mask id="path-2-outside-1_1_103" maskUnits="userSpaceOnUse" x="148.5" y="133.347" width="146" height="221" fill="black">
<rect fill="white" x="148.5" y="133.347" width="146" height="221"/>
<path d="M206 344.347C190.5 344.347 178.833 341.097 171 334.597C163.167 327.93 159.25 317.513 159.25 303.347V186.847C159.25 173.013 163.25 162.347 171.25 154.847C179.417 147.18 191.25 143.513 206.75 143.847L273.75 145.097V172.347H195.5C192.667 172.347 191.25 173.763 191.25 176.597V220.347H238.25C253.75 220.347 265.167 223.513 272.5 229.847C280 236.18 283.75 246.68 283.75 261.347V302.097C283.75 316.263 279.75 326.847 271.75 333.847C263.75 340.847 252.083 344.347 236.75 344.347H206ZM195.5 316.097H247.5C250 316.097 251.25 314.763 251.25 312.097V251.097C251.25 248.263 250 246.847 247.5 246.847H191.25V312.097C191.25 314.763 192.667 316.097 195.5 316.097Z"/>
</mask>
<path d="M171 334.597L164.519 342.212L164.566 342.252L164.614 342.292L171 334.597ZM171.25 154.847L178.089 162.142L178.094 162.137L171.25 154.847ZM206.75 143.847L206.535 153.844L206.549 153.845L206.563 153.845L206.75 143.847ZM273.75 145.097H283.75V135.281L273.937 135.098L273.75 145.097ZM273.75 172.347V182.347H283.75V172.347H273.75ZM191.25 220.347H181.25V230.347H191.25V220.347ZM272.5 229.847L265.964 237.415L266.006 237.451L266.048 237.487L272.5 229.847ZM271.75 333.847L265.165 326.321V326.321L271.75 333.847ZM191.25 246.847V236.847H181.25V246.847H191.25ZM206 344.347V334.347C191.666 334.347 182.695 331.307 177.386 326.901L171 334.597L164.614 342.292C174.972 350.887 189.334 354.347 206 354.347V344.347ZM171 334.597L177.481 326.981C172.634 322.856 169.25 315.741 169.25 303.347H159.25H149.25C149.25 319.286 153.7 333.004 164.519 342.212L171 334.597ZM159.25 303.347H169.25V186.847H159.25H149.25V303.347H159.25ZM159.25 186.847H169.25C169.25 175.008 172.606 167.283 178.089 162.142L171.25 154.847L164.411 147.551C153.894 157.41 149.25 171.018 149.25 186.847H159.25ZM171.25 154.847L178.094 162.137C183.719 156.857 192.631 153.545 206.535 153.844L206.75 143.847L206.965 133.849C189.869 133.481 175.114 137.503 164.406 147.556L171.25 154.847ZM206.75 143.847L206.563 153.845L273.563 155.095L273.75 145.097L273.937 135.098L206.937 133.848L206.75 143.847ZM273.75 145.097H263.75V172.347H273.75H283.75V145.097H273.75ZM273.75 172.347V162.347H195.5V172.347V182.347H273.75V172.347ZM195.5 172.347V162.347C192.542 162.347 188.487 163.093 185.241 166.338C181.996 169.583 181.25 173.639 181.25 176.597H191.25H201.25C201.25 176.721 201.212 178.652 199.384 180.48C197.555 182.309 195.625 182.347 195.5 182.347V172.347ZM191.25 176.597H181.25V220.347H191.25H201.25V176.597H191.25ZM191.25 220.347V230.347H238.25V220.347V210.347H191.25V220.347ZM238.25 220.347V230.347C252.706 230.347 261.261 233.354 265.964 237.415L272.5 229.847L279.036 222.278C269.072 213.673 254.794 210.347 238.25 210.347V220.347ZM272.5 229.847L266.048 237.487C270.371 241.137 273.75 248.145 273.75 261.347H283.75H293.75C293.75 245.215 289.629 231.223 278.952 222.206L272.5 229.847ZM283.75 261.347H273.75V302.097H283.75H293.75V261.347H283.75ZM283.75 302.097H273.75C273.75 314.393 270.334 321.798 265.165 326.321L271.75 333.847L278.335 341.372C289.166 331.895 293.75 318.134 293.75 302.097H283.75ZM271.75 333.847L265.165 326.321C259.65 331.147 250.716 334.347 236.75 334.347V344.347V354.347C253.451 354.347 267.85 350.547 278.335 341.372L271.75 333.847ZM236.75 344.347V334.347H206V344.347V354.347H236.75V344.347ZM195.5 316.097V326.097H247.5V316.097V306.097H195.5V316.097ZM247.5 316.097V326.097C250.463 326.097 254.477 325.276 257.608 321.936C260.625 318.718 261.25 314.817 261.25 312.097H251.25H241.25C241.25 312.043 241.25 310.142 243.017 308.257C244.898 306.251 247.037 306.097 247.5 306.097V316.097ZM251.25 312.097H261.25V251.097H251.25H241.25V312.097H251.25ZM251.25 251.097H261.25C261.25 248.425 260.688 244.553 257.811 241.293C254.723 237.794 250.639 236.847 247.5 236.847V246.847V256.847C246.861 256.847 244.652 256.608 242.814 254.525C242.006 253.61 241.608 252.691 241.422 252.059C241.331 251.75 241.29 251.507 241.27 251.351C241.25 251.196 241.25 251.106 241.25 251.097H251.25ZM247.5 246.847V236.847H191.25V246.847V256.847H247.5V246.847ZM191.25 246.847H181.25V312.097H191.25H201.25V246.847H191.25ZM191.25 312.097H181.25C181.25 315.132 182.085 319.204 185.459 322.379C188.719 325.447 192.688 326.097 195.5 326.097V316.097V306.097C195.545 306.097 195.975 306.098 196.634 306.305C197.335 306.525 198.272 306.973 199.166 307.815C201.123 309.656 201.25 311.728 201.25 312.097H191.25Z" fill="white" mask="url(#path-2-outside-1_1_103)"/>
</svg>
