<svg width="456" height="525" viewBox="0 0 456 525" fill="none" xmlns="http://www.w3.org/2000/svg">
<path d="M238.2 5.77344L445.7 125.573L455.7 131.347V392.853L445.7 398.626L238.2 518.426L228.2 524.199L218.2 518.426L184.708 499.089C192.399 495.347 199.665 490.637 206.34 484.797C230.481 463.673 239.2 434.013 239.2 403.895V338.694C239.2 309.953 232.014 279.766 208.368 258.909L207.23 257.923C207.226 257.919 207.221 257.915 207.217 257.911C207.203 257.9 207.191 257.889 207.18 257.881C207.174 257.875 207.169 257.871 207.165 257.867L207.156 257.86L207.126 257.834C207.123 257.832 207.12 257.829 207.111 257.821C207.094 257.807 207.053 257.772 207.006 257.732H207.005C193.666 246.333 177.685 239.743 160.807 236.295H220.399L228.2 240.799L396.738 143.493L228.2 46.1875L115.213 111.42L77.2342 110.712L76.8592 110.703C55.5497 110.245 34.4882 113.503 15.8602 122.594L218.2 5.77344L228.2 0L238.2 5.77344ZM193.17 469.746C192.892 469.989 192.613 470.229 192.332 470.468V470.467C192.613 470.228 192.892 469.988 193.17 469.745L194.017 468.991C193.737 469.245 193.455 469.496 193.17 469.746ZM248.2 275.44V466.464L415.7 369.758V178.734L248.2 275.44ZM164.703 441.351C156.681 447.307 143.938 451.494 124 451.494H102.27L93.2654 446.295H141.2C146.439 446.295 153.797 444.898 159.763 438.92C159.851 438.831 159.937 438.739 160.024 438.649L164.703 441.351ZM32.8885 182.876C40.8715 175.382 53.9618 170.225 75.5701 170.689H75.5984L75.6268 170.69L107.807 171.29L116.475 176.295H57.8592L57.7195 176.297L57.3016 176.303L57.1199 176.305L56.9373 176.311C53.0023 176.437 48.0042 177.359 43.3162 180.244L40.7 178.734V182.101C39.8497 182.791 39.0184 183.557 38.2176 184.409C32.4555 190.544 31.2 197.919 31.2 203.095V293.095H40.7V295.494H31.2V310.894H27.2V408.151L19.9998 403.995V219.494C19.9999 201.352 25.1112 190.167 32.8787 182.885L32.8885 182.876ZM185.758 216.295H105.757L105.755 216.294H185.756L185.758 216.295ZM19.8172 167.725C19.6103 167.913 19.4041 168.103 19.2 168.295V168.294C19.4042 168.102 19.6101 167.912 19.8172 167.724V167.725ZM3.83185 129.538C2.77747 130.251 1.73256 130.985 0.700012 131.744V131.347L3.83185 129.538Z" fill="white"/>
<path d="M74.8 471.494C50 471.494 31.3333 466.294 18.8 455.894C6.26667 445.227 0 428.56 0 405.894V219.494C0 197.36 6.4 180.294 19.2 168.294C32.2667 156.027 51.2 150.16 76 150.694L183.2 152.694V196.294H58C53.4667 196.294 51.2 198.56 51.2 203.094V273.094H126.4C151.2 273.094 169.467 278.16 181.2 288.294C193.2 298.427 199.2 315.227 199.2 338.694V403.894C199.2 426.56 192.8 443.494 180 454.694C167.2 465.894 148.533 471.494 124 471.494H74.8ZM58 426.294H141.2C145.2 426.294 147.2 424.16 147.2 419.894V322.294C147.2 317.76 145.2 315.494 141.2 315.494H51.2V419.894C51.2 424.16 53.4667 426.294 58 426.294Z" fill="white"/>
</svg>
