<svg width="527" height="543" viewBox="0 0 527 543" fill="none" xmlns="http://www.w3.org/2000/svg">
<path d="M264.34 11.9424L511.34 233.06L526.547 246.674L512.627 261.602L265.627 526.483L251 542.17L236.373 526.483L206.604 494.559C210.405 492.003 214.062 489.153 217.548 485.983L217.604 485.937L217.829 485.73L218.149 485.437L218.214 485.371C240.867 464.36 250.113 436.133 250.394 406.461L250.395 406.414V406.367L250.4 405.14V361.044C250.4 342.841 246.957 324.371 237.465 307.885C237.207 307.437 236.944 306.994 236.68 306.553L245.587 290.836L243.426 289.755C246.209 280.246 247.466 270.435 247.59 260.667L247.592 260.528L247.6 259.158V220.644L247.594 219.245C247.402 197.555 242.726 176.126 231 157.959V71.5908L178.128 118.921C163.695 114.42 148.255 112.644 132.8 112.644H125.172L237.66 11.9424L251 0L264.34 11.9424ZM201.762 473.223C201.495 473.445 201.226 473.665 200.957 473.884C201.505 473.439 202.047 472.985 202.583 472.523C202.31 472.758 202.037 472.992 201.762 473.223ZM271 329.959V462.069L435.637 285.513L271 329.959ZM172.991 444.844C170.52 446.481 167.652 447.959 164.327 449.222L161.896 446.614C163.203 446.153 164.528 445.573 165.839 444.844H172.991ZM189.436 417.496C187.888 426.713 184.553 433.536 180 438.722V407.377L189.436 417.496ZM180.942 308.65C181.387 308.847 181.825 309.05 182.259 309.255C181.82 309.047 181.377 308.843 180.928 308.645L180.942 308.65ZM271 288.527L457.183 238.264L271 71.5908V288.527ZM184.748 276.04C184.247 277.265 183.696 278.382 183.104 279.4L183.095 279.418L182.729 280.047C181.961 281.337 181.059 282.575 180 283.757V274.758L184.748 276.04ZM30 283.558C28.8001 282.224 27.7485 280.8 26.8271 279.281C24.3228 274.913 22.5286 268.77 22.4062 260.001L22.4004 258.922V220.644C22.4004 213.707 23.0881 207.869 24.3018 202.942L30 197.841V283.558ZM112.31 177.844H60.2275L60.0537 177.847L59.6592 177.854L59.4893 177.856L59.3203 177.862C56.618 177.955 53.4919 178.44 50.3389 179.634L55.8965 174.658C61.9211 173.379 69.0889 172.644 77.5996 172.644H118.118L112.31 177.844Z" fill="white"/>
<path d="M76 473.844C51.4667 473.844 32.6667 467.977 19.6 456.244C6.53333 444.244 0 427.177 0 405.044V361.044C0 334.644 10 317.044 30 308.244C21.2 303.71 14.4 297.444 9.6 289.444C4.8 281.177 2.4 271.044 2.4 259.044V220.644C2.4 175.31 27.4667 152.644 77.6 152.644H132.8C182.667 152.644 207.6 175.31 207.6 220.644V259.044C207.6 271.044 205.2 281.177 200.4 289.444C195.867 297.444 189.067 303.71 180 308.244C200.267 316.777 210.4 334.377 210.4 361.044V405.044C210.4 427.177 203.867 444.244 190.8 456.244C178 467.977 159.067 473.844 134 473.844H76ZM60.4 287.844H149.6C154.133 287.844 156.4 285.577 156.4 281.044V204.644C156.4 200.11 154.133 197.844 149.6 197.844H60.4C56.1333 197.844 54 200.11 54 204.644V281.044C54 285.577 56.1333 287.844 60.4 287.844ZM58 428.244H152C156.533 428.244 158.8 426.11 158.8 421.844V336.244C158.8 331.977 156.533 329.844 152 329.844H58C53.7333 329.844 51.6 331.977 51.6 336.244V421.844C51.6 426.11 53.7333 428.244 58 428.244Z" fill="white"/>
</svg>
