<svg width="552" height="543" viewBox="0 0 552 543" fill="none" xmlns="http://www.w3.org/2000/svg">
<path d="M288.887 11.9424L535.887 233.06L551.094 246.674L537.174 261.602L290.174 526.483L275.547 542.17L260.92 526.483L217.289 479.694C221.401 477.173 225.269 474.28 228.861 470.987L228.868 470.98L228.875 470.975C235.471 464.917 240.712 458.027 244.715 450.453L255.547 462.069V329.959L249.586 328.35C248.235 324.719 246.61 321.216 244.68 317.864C242.455 314 239.896 310.459 237.035 307.234C238.98 304.754 240.756 302.112 242.348 299.304L242.346 299.303C244.694 295.229 246.577 290.949 248.043 286.501L255.547 288.527V71.5908L184.685 135.026C176.052 133.389 166.889 132.644 157.347 132.644H127.377L262.207 11.9424L275.547 0L288.887 11.9424ZM229.97 434.641C226.703 443.089 221.83 450.29 215.347 456.244C211.793 459.501 207.766 462.305 203.268 464.658L169.312 428.244H176.547C181.08 428.244 183.347 426.11 183.347 421.844V384.642L229.97 434.641ZM295.547 329.959V462.069L460.184 285.513L295.547 329.959ZM150.897 349.844L163.347 363.193V408.244H150.663L96.2051 349.844H150.897ZM157.347 152.644C159.898 152.644 162.385 152.704 164.806 152.822L114.515 197.844H84.9473L84.5527 197.851C80.5489 197.988 78.5469 200.252 78.5469 204.644V230.042L69.3633 238.264L78.5469 240.742V281.044L78.5527 281.462C78.6777 285.579 80.6779 287.704 84.5527 287.837L84.9473 287.844H93.083L132.247 329.844H82.5469L82.1533 329.85C80.6488 329.898 79.4266 330.229 78.4873 330.843L29.4238 278.229C27.8613 272.782 27.0374 266.76 26.9541 260.163L26.9473 259.044V222.549L105.036 152.644H157.347ZM228.695 281.278C227.673 284.177 226.425 286.899 224.947 289.443L224.516 290.188C219.987 297.834 213.33 303.852 204.547 308.244C211.872 311.328 217.872 315.598 222.55 321.051L99.5439 287.844H174.146C178.538 287.844 180.803 285.716 180.94 281.462L180.947 281.044V268.388L228.695 281.278ZM295.547 288.527L481.729 238.264L295.547 71.5908V288.527ZM160.947 262.988V267.844H98.5469V246.142L160.947 262.988ZM6.94727 254.124L0 246.674L6.94727 240.454V254.124Z" fill="white"/>
<path d="M100.547 473.844C76.0135 473.844 57.2135 467.977 44.1469 456.244C31.0802 444.244 24.5469 427.177 24.5469 405.044V361.044C24.5469 334.644 34.5469 317.044 54.5469 308.244C45.7469 303.71 38.9469 297.444 34.1469 289.444C29.3469 281.177 26.9469 271.044 26.9469 259.044V220.644C26.9469 175.31 52.0135 152.644 102.147 152.644H157.347C207.214 152.644 232.147 175.31 232.147 220.644V259.044C232.147 271.044 229.747 281.177 224.947 289.444C220.414 297.444 213.614 303.71 204.547 308.244C224.814 316.777 234.947 334.377 234.947 361.044V405.044C234.947 427.177 228.414 444.244 215.347 456.244C202.547 467.977 183.614 473.844 158.547 473.844H100.547ZM84.9469 287.844H174.147C178.68 287.844 180.947 285.577 180.947 281.044V204.644C180.947 200.11 178.68 197.844 174.147 197.844H84.9469C80.6802 197.844 78.5469 200.11 78.5469 204.644V281.044C78.5469 285.577 80.6802 287.844 84.9469 287.844ZM82.5469 428.244H176.547C181.08 428.244 183.347 426.11 183.347 421.844V336.244C183.347 331.977 181.08 329.844 176.547 329.844H82.5469C78.2802 329.844 76.1469 331.977 76.1469 336.244V421.844C76.1469 426.11 78.2802 428.244 82.5469 428.244Z" fill="white"/>
</svg>
