<svg width="523" height="515" viewBox="0 0 523 515" fill="none" xmlns="http://www.w3.org/2000/svg">
<path d="M267.943 5.97168L514.943 227.089L522.547 233.896L515.587 241.359L268.587 506.242L261.273 514.085L253.96 506.242L6.95996 241.359L0 233.896L7.60352 227.089L254.604 5.97168L261.273 0L267.943 5.97168ZM271.273 152.422H251.273V35.7949L34.6816 229.69L170.273 266.295V287.012L45.4541 253.315L251.273 474.034V398.422H271.273V474.034L477.092 253.315L352.273 287.012V266.295L487.864 229.69L271.273 35.7949V152.422Z" fill="white"/>
<mask id="path-2-outside-1_1_104" maskUnits="userSpaceOnUse" x="185.273" y="162.422" width="152" height="222" fill="black">
<rect fill="white" x="185.273" y="162.422" width="152" height="222"/>
<path d="M242.773 373.672C227.44 373.672 215.69 370.005 207.523 362.672C199.357 355.172 195.273 344.505 195.273 330.672V303.172C195.273 286.672 201.523 275.672 214.023 270.172C208.523 267.339 204.273 263.422 201.273 258.422C198.273 253.255 196.773 246.922 196.773 239.422V215.422C196.773 187.089 212.44 172.922 243.773 172.922H278.273C309.44 172.922 325.023 187.089 325.023 215.422V239.422C325.023 246.922 323.523 253.255 320.523 258.422C317.69 263.422 313.44 267.339 307.773 270.172C320.44 275.505 326.773 286.505 326.773 303.172V330.672C326.773 344.505 322.69 355.172 314.523 362.672C306.523 370.005 294.69 373.672 279.023 373.672H242.773ZM233.023 257.422H288.773C291.607 257.422 293.023 256.005 293.023 253.172V205.422C293.023 202.589 291.607 201.172 288.773 201.172H233.023C230.357 201.172 229.023 202.589 229.023 205.422V253.172C229.023 256.005 230.357 257.422 233.023 257.422ZM231.523 345.172H290.273C293.107 345.172 294.523 343.839 294.523 341.172V287.672C294.523 285.005 293.107 283.672 290.273 283.672H231.523C228.857 283.672 227.523 285.005 227.523 287.672V341.172C227.523 343.839 228.857 345.172 231.523 345.172Z"/>
</mask>
<path d="M207.523 362.672L200.759 370.037L200.801 370.075L200.842 370.112L207.523 362.672ZM214.023 270.172L218.051 279.325L237.239 270.882L218.603 261.282L214.023 270.172ZM201.273 258.422L192.626 263.443L192.662 263.505L192.699 263.567L201.273 258.422ZM320.523 258.422L311.876 253.401L311.849 253.446L311.823 253.492L320.523 258.422ZM307.773 270.172L303.301 261.228L283.855 270.951L303.893 279.388L307.773 270.172ZM314.523 362.672L321.281 370.043L321.288 370.037L314.523 362.672ZM242.773 373.672V363.672C228.928 363.672 219.919 360.363 214.205 355.231L207.523 362.672L200.842 370.112C211.461 379.648 225.952 383.672 242.773 383.672V373.672ZM207.523 362.672L214.287 355.307C208.673 350.15 205.273 342.448 205.273 330.672H195.273H185.273C185.273 346.562 190.041 360.193 200.759 370.037L207.523 362.672ZM195.273 330.672H205.273V303.172H195.273H185.273V330.672H195.273ZM195.273 303.172H205.273C205.273 296.141 206.608 291.091 208.656 287.487C210.632 284.008 213.603 281.282 218.051 279.325L214.023 270.172L209.996 261.019C201.944 264.562 195.54 270.086 191.266 277.607C187.064 285.003 185.273 293.702 185.273 303.172H195.273ZM214.023 270.172L218.603 261.282C214.652 259.247 211.832 256.582 209.848 253.277L201.273 258.422L192.699 263.567C196.715 270.261 202.395 275.43 209.444 279.062L214.023 270.172ZM201.273 258.422L209.921 253.401C208.006 250.102 206.773 245.603 206.773 239.422H196.773H186.773C186.773 248.241 188.541 256.408 192.626 263.443L201.273 258.422ZM196.773 239.422H206.773V215.422H196.773H186.773V239.422H196.773ZM196.773 215.422H206.773C206.773 203.071 210.142 195.566 215.231 190.964C220.51 186.19 229.413 182.922 243.773 182.922V172.922V162.922C226.8 162.922 212.203 166.737 201.816 176.13C191.238 185.695 186.773 199.44 186.773 215.422H196.773ZM243.773 172.922V182.922H278.273V172.922V162.922H243.773V172.922ZM278.273 172.922V182.922C292.539 182.922 301.371 186.184 306.609 190.946C311.666 195.544 315.023 203.055 315.023 215.422H325.023H335.023C335.023 199.455 330.589 185.717 320.063 176.147C309.717 166.743 295.175 162.922 278.273 162.922V172.922ZM325.023 215.422H315.023V239.422H325.023H335.023V215.422H325.023ZM325.023 239.422H315.023C315.023 245.603 313.791 250.102 311.876 253.401L320.523 258.422L329.171 263.443C333.256 256.408 335.023 248.241 335.023 239.422H325.023ZM320.523 258.422L311.823 253.492C310.069 256.588 307.381 259.188 303.301 261.228L307.773 270.172L312.246 279.116C319.499 275.489 325.311 270.256 329.224 263.352L320.523 258.422ZM307.773 270.172L303.893 279.388C308.389 281.281 311.373 283.966 313.357 287.412C315.418 290.991 316.773 296.057 316.773 303.172H326.773H336.773C336.773 293.62 334.962 284.853 330.69 277.432C326.34 269.878 319.825 264.396 311.654 260.956L307.773 270.172ZM326.773 303.172H316.773V330.672H326.773H336.773V303.172H326.773ZM326.773 330.672H316.773C316.773 342.448 313.374 350.15 307.759 355.307L314.523 362.672L321.288 370.037C332.006 360.193 336.773 346.562 336.773 330.672H326.773ZM314.523 362.672L307.766 355.3C302.286 360.324 293.287 363.672 279.023 363.672V373.672V383.672C296.093 383.672 310.761 379.687 321.281 370.043L314.523 362.672ZM279.023 373.672V363.672H242.773V373.672V383.672H279.023V373.672ZM233.023 257.422V267.422H288.773V257.422V247.422H233.023V257.422ZM288.773 257.422V267.422C291.732 267.422 295.787 266.676 299.032 263.43C302.277 260.185 303.023 256.13 303.023 253.172H293.023H283.023C283.023 253.047 283.061 251.117 284.89 249.288C286.718 247.46 288.649 247.422 288.773 247.422V257.422ZM293.023 253.172H303.023V205.422H293.023H283.023V253.172H293.023ZM293.023 205.422H303.023C303.023 202.464 302.277 198.408 299.032 195.163C295.787 191.918 291.732 191.172 288.773 191.172V201.172V211.172C288.649 211.172 286.718 211.134 284.89 209.305C283.061 207.477 283.023 205.547 283.023 205.422H293.023ZM288.773 201.172V191.172H233.023V201.172V211.172H288.773V201.172ZM233.023 201.172V191.172C229.988 191.172 225.917 192.007 222.741 195.381C219.674 198.64 219.023 202.61 219.023 205.422H229.023H239.023C239.023 205.467 239.022 205.896 238.815 206.556C238.595 207.256 238.147 208.193 237.305 209.088C235.464 211.045 233.392 211.172 233.023 211.172V201.172ZM229.023 205.422H219.023V253.172H229.023H239.023V205.422H229.023ZM229.023 253.172H219.023C219.023 255.984 219.674 259.953 222.741 263.213C225.917 266.587 229.988 267.422 233.023 267.422V257.422V247.422C233.392 247.422 235.464 247.549 237.305 249.506C238.147 250.4 238.595 251.337 238.815 252.038C239.022 252.697 239.023 253.127 239.023 253.172H229.023ZM231.523 345.172V355.172H290.273V345.172V335.172H231.523V345.172ZM290.273 345.172V355.172C293.086 355.172 297.055 354.522 300.315 351.454C303.688 348.279 304.523 344.207 304.523 341.172H294.523H284.523C284.523 340.804 284.65 338.732 286.607 336.89C287.502 336.048 288.439 335.6 289.139 335.38C289.799 335.174 290.229 335.172 290.273 335.172V345.172ZM294.523 341.172H304.523V287.672H294.523H284.523V341.172H294.523ZM294.523 287.672H304.523C304.523 284.637 303.688 280.565 300.315 277.39C297.055 274.322 293.086 273.672 290.273 273.672V283.672V293.672C290.229 293.672 289.799 293.67 289.139 293.463C288.439 293.244 287.502 292.796 286.607 291.954C284.65 290.112 284.523 288.04 284.523 287.672H294.523ZM290.273 283.672V273.672H231.523V283.672V293.672H290.273V283.672ZM231.523 283.672V273.672C228.649 273.672 224.656 274.397 221.452 277.601C218.249 280.804 217.523 284.797 217.523 287.672H227.523H237.523C237.523 287.88 237.465 289.873 235.595 291.743C233.724 293.613 231.732 293.672 231.523 293.672V283.672ZM227.523 287.672H217.523V341.172H227.523H237.523V287.672H227.523ZM227.523 341.172H217.523C217.523 344.047 218.249 348.039 221.452 351.243C224.656 354.446 228.649 355.172 231.523 355.172V345.172V335.172C231.732 335.172 233.724 335.231 235.595 337.101C237.465 338.971 237.523 340.964 237.523 341.172H227.523Z" fill="white" mask="url(#path-2-outside-1_1_104)"/>
</svg>
